<?xml version="1.0" encoding="utf-8"?>
<!-- Generator: Adobe Illustrator 21.0.0, SVG Export Plug-In . SVG Version: 6.00 Build 0)  -->
<svg version="1.1" id="Layer_1" xmlns="http://www.w3.org/2000/svg" xmlns:xlink="http://www.w3.org/1999/xlink" x="0px" y="0px"
	 viewBox="0 0 600 150" style="enable-background:new 0 0 600 150;" xml:space="preserve">
<style type="text/css">
	.black_x0020_30_x0025_{opacity:0.3;fill:#231F20;}
	.white_x0020_50_x0025_{opacity:0.5;fill:#FFFFFF;}
	.st0{fill:none;}
	.st1{fill:#D93F3D;}
	.st2{opacity:0.5;}
	.st3{fill:#FFFFFF;}
	.st4{opacity:0.3;}
	.st5{fill:#231F20;}
	.st6{opacity:0.5;fill:#FFFFFF;}
</style>
<rect x="450" class="st0" width="150" height="150"/>
<rect x="300" class="st0" width="150" height="150"/>
<rect x="150" class="st0" width="150" height="150"/>
<rect class="st0" width="150" height="150"/>
<g>
	<path class="st1" d="M544.2,65.5c2.4-2.4,5-4.7,7.6-6.9c-0.2,9.3-1,21.8-5.1,30.6c-5.1,11.1-14.6,20.4-29.4,25.8
		c-14.8-5.4-24.3-14.7-29.4-25.8c-5.5-11.8-5.2-30.3-5.1-38.8L517.3,35l27.5,12.3c-2.6,1.6-5.1,3.3-7.3,5l-20.1-9.4L490,55.7
		c0.3,9.6,0.7,22.3,4.4,30.5c4.4,9.6,12.1,16.7,22.9,21.3c10.7-4.5,18.4-11.7,22.9-21.3C542.7,80.6,543.7,72.9,544.2,65.5z
		 M503.9,59.2l-10,3.9l19.6,36.6c9.7-12.1,26.9-41.5,53.7-54.1l-0.5-5c-27,6.8-40.7,27-50.8,33.5L503.9,59.2z"/>
	<g class="st2">
		<path class="st3" d="M540.2,86.2c-4.4,9.5-12,16.6-22.6,21.2c0.1,0,0.2,0.1,0.2,0.1c10.7-4.5,18.4-11.7,22.9-21.3
			c2.6-5.6,3.5-13.2,4-20.6c2.3-2.3,4.7-4.5,7.2-6.5c0-0.1,0-0.3,0-0.4c-2.7,2.2-5.2,4.5-7.6,6.9C543.7,72.9,542.7,80.6,540.2,86.2z
			"/>
		<path class="st3" d="M537.7,52.2l-19.8-9.2l-0.2,0.1l19.9,9.3C537.6,52.3,537.6,52.2,537.7,52.2z"/>
		<path class="st3" d="M488.3,89.2c-5.5-11.8-5.2-30.3-5.1-38.8l34.3-15.3l-0.2-0.1l-34.5,15.4c0,8.6-0.4,27,5.1,38.8
			c5.1,11.1,14.6,20.4,29.4,25.8c0.1,0,0.2-0.1,0.2-0.1C502.8,109.6,493.4,100.3,488.3,89.2z"/>
		<path class="st3" d="M516.3,74.1c10.1-6.5,23.7-26.5,50.4-33.4l0-0.1c-26.7,6.8-40.4,26.6-50.5,33.3L516.3,74.1z"/>
		<path class="st3" d="M503.9,59.2l-10,3.9l19.6,36.6c0.1-0.1,0.2-0.2,0.3-0.3l-19.5-36.2l9.6-3.8L503.9,59.2z"/>
	</g>
	<g class="st4">
		<path class="st5" d="M494.4,86.2c-3.8-8.1-4.1-20.8-4.4-30.5l27-12.6l-0.3-0.2l-27.4,12.8c0.3,9.6,0.7,22.3,4.4,30.5
			c4.4,9.6,12.1,16.7,22.9,21.3c0.1,0,0.2-0.1,0.3-0.1C506.4,102.7,498.8,95.7,494.4,86.2z"/>
		<path class="st5" d="M537.1,52.1l0.4,0.2c2.3-1.7,4.7-3.4,7.3-5L517.3,35l-0.3,0.2l27.2,12.1C541.6,48.8,539.3,50.4,537.1,52.1z"
			/>
		<path class="st5" d="M546,89.2c-5.1,11-14.4,20.3-29.1,25.6c0.1,0,0.2,0.1,0.3,0.1c14.8-5.4,24.3-14.7,29.4-25.8
			c4.1-8.8,4.9-21.3,5.1-30.6c-0.2,0.2-0.5,0.4-0.7,0.6C550.9,68.5,550,80.6,546,89.2z"/>
		<path class="st5" d="M513.3,99.2l0.3,0.5c9.7-12.1,26.9-41.5,53.7-54.1l-0.5-5c-0.2,0.1-0.4,0.1-0.7,0.2l0.5,4.8
			C540.2,58.1,523,86.9,513.3,99.2z"/>
		<path class="st5" d="M503.9,59.2l-0.5,0.2l11.8,14.7c0.1-0.1,0.3-0.2,0.4-0.3L503.9,59.2z"/>
	</g>
</g>
<g>
	<path class="st1" d="M223.3,95.6h1.1h1.4h1.1c13.2-0.9,24-11.5,24.9-24.9v-1v-1.6v-1c-0.9-13.2-11.6-24-24.9-24.8l-1.1-0.1h-1.6
		l-0.9,0.1c-13.2,0.8-24,11.5-24.9,24.8v1v1.6v1C199.3,84.1,210,94.7,223.3,95.6z M202.5,111c0,0,7.3,3,10.8-2.6
		C213.4,108.5,207.9,104.3,202.5,111z M207.9,99.9c-0.3,4.2,2.5,6.6,2.5,6.6c1.8,0.1,3.1,1.1,3.1,1.1
		C214.6,101.7,207.9,99.9,207.9,99.9z M194.2,104.9c0,0,6.2,4.9,11,0.5C205.2,105.4,201.3,99.9,194.2,104.9z M203,102.7
		c1.8,0.6,2.7,1.9,2.7,1.9c2.8-5.4-3.2-8.9-3.2-8.9C200.8,99.6,203,102.7,203,102.7z M198.3,100.1c0,0-3.2-6.1-10.9-2.2
		C187.5,97.9,192.8,103.7,198.3,100.1z M197,90.1c-2.3,3.7-0.6,7-0.6,7c1.7,0.9,2.3,2.3,2.3,2.3C202.3,94.5,197,90.1,197,90.1z
		 M192,93.7c0,0-1.4-6.6-9.9-4.8C182.1,88.9,185.8,95.8,192,93.7z M192.7,93.1c4.7-3.8,0.6-9.4,0.6-9.4c-3,3-2.3,6.6-2.3,6.6
		C192.4,91.5,192.7,93.1,192.7,93.1z M188.2,86.9c0,0,0.3-6.8-8.3-7.3C179.9,79.6,181.6,87.2,188.2,86.9z M192,77.6
		c-3.7,2.1-3.9,5.8-3.9,5.8c1,1.5,0.8,3.2,0.8,3.2C194.4,84.1,192,77.6,192,77.6z M184.8,78.4c0,0,1.4-6.6-7-8.5
		C177.7,69.8,178.2,77.7,184.8,78.4z M190.1,69.8c-4.1,1.5-4.9,5.1-4.9,5.1c0.9,1.8,0.4,3.2,0.4,3.2
		C191.4,76.6,190.1,69.8,190.1,69.8z M184.1,69.2c0,0,2.7-6.3-5.2-9.7C178.9,59.5,177.7,67.2,184.1,69.2z M191,61.8
		c-4.2,0.7-5.8,4-5.8,4c0.4,1.9-0.3,3.3-0.3,3.3C191,68.7,191,61.8,191,61.8z M184.5,60.3c0,0,4.1-5.4-2.8-10.7
		C181.7,49.6,178.9,56.9,184.5,60.3z M193,54.8c-4.2-0.4-6.6,2.5-6.6,2.5c0,1.9-1,3.1-1,3.1C191.3,61.5,193,54.8,193,54.8z
		 M203.2,35c0,0-11.5,1-12.3,10.7C191,45.7,200.8,47.5,203.2,35z M186.6,41.3c0,0-4.5,6.5,0.2,11.1C186.8,52.3,192,48,186.6,41.3z
		 M187.6,52.7c5.5,2.3,8.6-3.8,8.6-3.8c-3.9-1.3-6.9,1-6.9,1C188.9,51.7,187.6,52.7,187.6,52.7z M236.6,108.5
		c3.5,5.6,10.8,2.6,10.8,2.6C242.1,104.3,236.6,108.5,236.6,108.5z M242.1,99.9c0,0-6.8,1.8-5.6,7.7c0,0,1.3-1,3.1-1.1
		C239.6,106.5,242.4,104.2,242.1,99.9z M244.8,105.4c4.8,4.4,11-0.5,11-0.5C248.7,99.9,244.8,105.4,244.8,105.4z M244.4,104.6
		c0,0,0.8-1.3,2.7-1.9c0,0,2.1-3,0.6-7C247.6,95.7,241.6,99.2,244.4,104.6z M251.7,100.1c5.5,3.6,10.9-2.2,10.9-2.2
		C254.9,94,251.7,100.1,251.7,100.1z M251.3,99.4c0,0,0.6-1.4,2.2-2.3c0,0,1.7-3.3-0.4-7C253.1,90.1,247.7,94.5,251.3,99.4z
		 M258,93.7c6.2,2.1,9.9-4.8,9.9-4.8C259.4,87,258,93.7,258,93.7z M257.3,93.1c0,0,0.3-1.6,1.7-2.8c0,0,0.7-3.6-2.3-6.6
		C256.8,83.7,252.7,89.3,257.3,93.1z M261.8,86.9c6.6,0.4,8.3-7.3,8.3-7.3C261.5,80.1,261.8,86.9,261.8,86.9z M258,77.6
		c0,0-2.4,6.5,3.1,8.9c0,0-0.1-1.6,0.8-3.2C262,83.4,261.7,79.7,258,77.6z M265.2,78.4c6.6-0.7,7-8.5,7-8.5
		C263.8,71.8,265.2,78.4,265.2,78.4z M259.9,69.8c0,0-1.3,6.8,4.5,8.3c0,0-0.4-1.5,0.4-3.2C264.8,74.9,263.9,71.3,259.9,69.8z
		 M265.9,69.2c6.3-2,5.2-9.7,5.2-9.7C263.2,63,265.9,69.2,265.9,69.2z M264.8,65.8c0,0-1.6-3.3-5.8-4c0,0,0.1,6.9,6.1,7.3
		C265.1,69.2,264.4,67.7,264.8,65.8z M265.5,60.3c5.7-3.4,2.8-10.7,2.8-10.7C261.4,54.9,265.5,60.3,265.5,60.3z M264.6,60.4
		c0,0-1-1.2-1-3.1c0,0-2.4-2.9-6.6-2.5C257,54.8,258.7,61.5,264.6,60.4z M259,45.7C258.3,36,246.8,35,246.8,35
		C249.2,47.5,259,45.7,259,45.7z M263.2,52.3c4.7-4.6,0.3-11.1,0.3-11.1C258,48,263.2,52.3,263.2,52.3z M253.8,48.9
		c0,0,3.1,6.1,8.6,3.8c0,0-1.3-1-1.7-2.8C260.7,49.8,257.7,47.6,253.8,48.9z M226.9,105.9l-1.8-5.7l-2,5.7h-5.9l4.8,3.5l-1.8,5.6
		l4.9-3.5l4.8,3.5l-1.8-5.6l4.8-3.5H226.9z M193,68v2v1.2c1.1,16,14,28.8,29.9,29.9l1.3,0.1h1.8l1.2-0.1
		c15.9-1.1,28.8-13.9,29.9-29.9v-1.2v-2v-1.2c-1.1-15.9-14-28.8-29.9-29.9H226h-2h-1.1C207,38,194.1,50.9,193,66.8V68z M195.7,68V67
		c0.9-14.6,12.7-26.4,27.4-27.3l1.1-0.1h1.8l1.1,0.1c14.7,0.9,26.3,12.7,27.4,27.3V68v1.8v1.1c-1.1,14.7-12.7,26.4-27.4,27.4
		l-1.1,0.1h-1.8l-1.1-0.1c-14.7-1-26.5-12.7-27.4-27.4v-1.1V68z M212.2,84.9c2.3,1.3,5.7,2.2,9.1,2.5v4.6c0,0.5,0.3,0.8,0.9,0.8h5.5
		c0.4,0,0.7-0.4,0.7-0.8v-5.1c6.1-1.2,10-5.5,10-11c0-5.5-3-8.8-9.8-11.3c-4.7-1.7-6.3-2.8-6.3-4.1c0-1.5,1.4-2.3,3.9-2.3
		c3.6,0,5.9,1,7.5,1.7l0.4,0.2c0.2,0.1,0.4,0.1,0.7,0c0.2-0.2,0.4-0.4,0.4-0.5l1.6-6.3c0.2-0.5,0-0.8-0.4-1
		c-2.2-1.1-4.8-1.7-7.7-1.9V46c0-0.5-0.3-0.8-0.9-0.8h-5.6c-0.4,0-0.7,0.4-0.7,0.8v4.7c-5.9,1.3-9.5,5.4-9.5,10.6
		c0,6.6,5.7,9.4,10.6,11c4.7,1.5,5.5,2.8,5.5,4.2c0,2.4-3.6,2.6-4.7,2.6c-3.9,0-7.3-1.4-8.9-2.3c-0.2-0.1-0.5-0.2-0.7-0.1
		c-0.2,0.2-0.4,0.4-0.4,0.6l-1.8,6.5C211.8,84.3,211.8,84.7,212.2,84.9z M200.2,68.2v-1c0.9-12.3,10.7-22.3,23.3-23.2h0.9h1.4h0.9
		c12.5,0.9,22.4,10.8,23.3,23.2v1v1.5v0.9C249,83,239.2,93,226.7,93.8h-0.9h-1.4h-0.9C210.9,93,201.1,83,200.2,70.6v-0.9V68.2z"/>
	<path class="st5" d="M213.1,108.3c0.2,0.1,0.3,0.2,0.3,0.2c-3.5,5.6-10.8,2.6-10.8,2.6c0.1-0.1,0.2-0.2,0.3-0.4
		C204.4,111.2,210,112.6,213.1,108.3z M213.5,107.1c0,0-1.3-1-3.1-1.1c0,0-1.6-1.3-2.2-3.8c0.6,2.7,2.3,4.3,2.3,4.3
		c1.8,0.1,3.1,1.1,3.1,1.1c0.2-0.8,0.1-1.6,0-2.3C213.6,105.9,213.6,106.5,213.5,107.1z M204.9,105c-4,3.5-8.9,0.6-10.3-0.4
		c-0.1,0.1-0.2,0.1-0.4,0.2c0,0,6.2,4.9,11,0.5C205.2,105.4,205.1,105.2,204.9,105z M202.9,102.2c0,0-0.7-1.1-1-2.8
		c0.2,2,1.1,3.3,1.1,3.3c1.8,0.6,2.7,1.9,2.7,1.9c0.8-1.4,0.8-2.7,0.6-3.9c0.1,1,0,2.1-0.7,3.4C205.6,104.1,204.7,102.8,202.9,102.2
		z M198.3,100.1c0,0-0.1-0.2-0.3-0.4c-4.6,2.8-9-0.7-10.3-1.9c-0.1,0.1-0.2,0.1-0.3,0.1C187.5,97.9,192.8,103.7,198.3,100.1z
		 M196.4,96.5c0,0-0.3-0.7-0.5-1.8c0.1,1.4,0.6,2.3,0.6,2.3c1.7,0.9,2.3,2.3,2.3,2.3c1-1.4,1.3-2.7,1.2-4c0,1.1-0.3,2.3-1.2,3.5
		C198.7,98.9,198.1,97.4,196.4,96.5z M192,93.7c0,0-0.1-0.2-0.2-0.5c-5.2,1.7-8.5-2.8-9.5-4.3c-0.1,0-0.1,0-0.2,0
		C182.1,88.9,185.8,95.8,192,93.7z M190.9,89.8c0,0.3,0.1,0.5,0.1,0.5c1.4,1.3,1.7,2.8,1.7,2.8c1.9-1.6,2.3-3.5,2.2-5.1
		c0,1.5-0.5,3.2-2.2,4.6C192.6,92.6,192.3,91,190.9,89.8z M188.2,86.9c0,0,0-0.4-0.1-1.1c0,0.4,0,0.6,0,0.6
		c-5.6,0.3-7.7-5.1-8.2-6.8c0,0-0.1,0-0.1,0C179.9,79.6,181.6,87.2,188.2,86.9z M192.4,79.4c0.2,2.1-0.2,5.1-3.5,6.6
		c0,0.3,0,0.5,0,0.5C192.5,84.9,192.7,81.5,192.4,79.4z M188,83.4c0.5,0.7,0.7,1.5,0.8,2c0-0.6-0.2-1.4-0.7-2.3
		C188,83.3,188,83.4,188,83.4z M184.7,77.9c-5.6-0.6-6.7-6.2-7-8c0,0.4,0.6,7.8,7,8.5c0,0,0.2-1,0-2.3
		C184.9,77.1,184.7,77.9,184.7,77.9z M190.1,69.8L190.1,69.8c0.2,1.5,0.3,6.4-4.4,7.8c0,0.3-0.1,0.6-0.1,0.6
		C191.4,76.6,190.1,69.8,190.1,69.8z M185.2,74.9c0.2,0.4,0.3,0.8,0.4,1.2c0-0.4-0.2-0.9-0.4-1.4C185.2,74.9,185.2,74.9,185.2,74.9z
		 M184,68.7c-3.8-1.2-4.9-4.4-5.2-6.8c0.2,2.5,1.2,6.1,5.2,7.3c0,0,0.7-1.6,0.3-3.7C184.6,67.3,184,68.7,184,68.7z M191,61.8
		C190.9,61.8,190.9,61.8,191,61.8c-0.2,1.6-1,6.3-5.9,6.8c-0.1,0.3-0.2,0.6-0.2,0.6C191,68.7,191,61.8,191,61.8z M184.4,59.8
		c-2.1-1.3-3-3-3.3-4.8c0.3,1.9,1.1,3.9,3.4,5.3c0,0,1.6-2.2,1.1-5.1C185.9,57.8,184.4,59.8,184.4,59.8z M185.7,59.9
		c-0.2,0.3-0.3,0.5-0.3,0.5c5.9,1.1,7.6-5.6,7.6-5.6c-0.1,0-0.1,0-0.2,0C192.2,56.2,190.3,60.5,185.7,59.9z M191.1,45.2
		c0,0.2-0.1,0.3-0.1,0.5c0,0,9.9,1.8,12.3-10.7c0,0-0.1,0-0.2,0C200.7,46.1,192.3,45.4,191.1,45.2z M186.7,51.8
		c-1.1-1.1-1.7-2.3-1.9-3.5c0.2,1.4,0.7,2.8,2,4c0,0,3-2.5,2.1-6.6C189.4,49.5,186.7,51.8,186.7,51.8z M188,52.3
		c-0.2,0.2-0.4,0.4-0.4,0.4c5.5,2.3,8.6-3.8,8.6-3.8c-0.1,0-0.2,0-0.3-0.1C195.1,50.1,192.3,53.8,188,52.3z M236.9,108.3
		c-0.1,0.1-0.2,0.2-0.2,0.2c3.5,5.6,10.8,2.6,10.8,2.6c-0.1-0.2-0.3-0.2-0.4-0.4C245.7,111.1,240,112.7,236.9,108.3z M239.6,106.5
		c0,0,2.8-2.4,2.5-6.6c0,0-0.1,0-0.1,0c0,3.9-2.5,6.1-2.5,6.1c-1.7,0.1-3,1-3.1,1c0,0.2,0,0.3,0,0.5
		C236.5,107.6,237.8,106.6,239.6,106.5z M245,105.1c-0.2,0.2-0.2,0.3-0.2,0.3c4.8,4.4,11-0.5,11-0.5c-0.1-0.1-0.3-0.1-0.4-0.2
		C254,105.5,249.1,108.5,245,105.1z M247,102.2c-1.8,0.6-2.7,1.9-2.7,1.9c-0.3-0.6-0.5-1.2-0.6-1.8c0.1,0.7,0.3,1.5,0.7,2.3
		c0,0,0.8-1.3,2.7-1.9c0,0,1.6-2.3,1-5.6C248.4,100.1,247,102.2,247,102.2z M251.9,99.7c-0.1,0.2-0.2,0.4-0.2,0.4
		c5.5,3.6,10.9-2.2,10.9-2.2c-0.1-0.1-0.3-0.1-0.4-0.2C260.9,98.9,256.5,102.4,251.9,99.7z M251.3,99.4c0,0,0.6-1.4,2.2-2.3
		c0,0,1-1.9,0.5-4.4c0.3,2.3-0.6,3.9-0.6,3.9c-1.7,0.9-2.2,2.3-2.2,2.3c-0.8-1.1-1.1-2.1-1.1-3.1C250.1,96.9,250.4,98.1,251.3,99.4z
		 M258.2,93.2c-0.1,0.3-0.1,0.5-0.1,0.5c6.2,2.1,9.9-4.8,9.9-4.8c-0.1,0-0.2,0-0.3,0C266.6,90.3,263.3,94.8,258.2,93.2z M259,89.8
		c-1.4,1.3-1.7,2.8-1.7,2.8c-1.2-0.9-1.8-2-2-3.1c0.2,1.2,0.8,2.5,2.1,3.6c0,0,0.3-1.6,1.7-2.8c0,0,0.2-0.9,0-2.3
		C259.1,89.1,259,89.8,259,89.8z M261.9,86.4c0,0.3,0,0.5,0,0.5c6.6,0.4,8.3-7.3,8.3-7.3c-0.1,0-0.1,0-0.2,0
		C269.4,81.3,267.4,86.6,261.9,86.4z M261.9,82.9c-1,1.5-0.8,3.1-0.8,3.1c-2.6-1.1-3.4-3.1-3.6-5c0.1,1.9,0.8,4.2,3.6,5.5
		c0,0-0.1-1.6,0.8-3.2C262,83.4,261.9,83.2,261.9,82.9z M265.1,77.9c0,0.3,0.1,0.5,0.1,0.5c6.6-0.7,7-8.5,7-8.5c0,0-0.1,0-0.1,0
		C271.9,71.6,270.8,77.3,265.1,77.9z M259.8,72c0.1,2.1,1,5.2,4.6,6.2c0,0,0-0.2-0.1-0.5C260.9,76.7,260,74.1,259.8,72z M264.8,74.9
		c0,0,0-0.1-0.1-0.3c-0.7,1.6-0.4,2.8-0.4,3C264.2,77,264.2,76,264.8,74.9z M265.9,68.7c0,0-0.2-0.4-0.3-1c0.1,0.9,0.4,1.5,0.4,1.5
		c6.3-2,5.2-9.7,5.2-9.7c0,0,0,0,0,0C271.2,61.2,271.2,67,265.9,68.7z M264.7,67.7c-0.1-0.5-0.1-1.2,0.1-1.9c0,0,0-0.1-0.1-0.2
		C264.6,66.5,264.6,67.2,264.7,67.7z M264.9,68.6c-4.3-0.4-5.5-4.3-5.8-6.2c0.2,1.6,1.1,6.4,6,6.7C265.1,69.2,265,68.9,264.9,68.6z
		 M265.4,59.8c0,0-0.9-1.2-1.1-3c0.1,2.1,1.2,3.5,1.2,3.5c3.7-2.2,3.8-6,3.4-8.4C269.1,54.3,268.8,57.7,265.4,59.8z M263.8,58.1
		c-0.1-0.2-0.1-0.5-0.1-0.8l0,0C263.7,57.6,263.7,57.8,263.8,58.1z M264.6,60.4c0,0-0.1-0.2-0.3-0.5c-4.8,0.7-6.7-3.7-7.2-5.1
		c0,0-0.1,0-0.1,0C257,54.8,258.7,61.5,264.6,60.4z M246.8,35C246.8,35,246.8,35,246.8,35c2.3,12.5,12.2,10.7,12.2,10.7
		c0-0.2-0.1-0.3-0.1-0.5C258.4,45.3,249.3,46.6,246.8,35z M261,47.6c0.1,3,2.2,4.7,2.2,4.7c1.9-1.9,2.3-4,2.1-6
		c0.1,1.8-0.4,3.8-2.1,5.5C263.2,51.8,261.4,50.2,261,47.6z M254,48.8c-0.1,0-0.1,0-0.2,0c0,0,3.1,6.1,8.6,3.8c0,0-0.2-0.2-0.4-0.4
		C257.6,53.9,254.8,50.1,254,48.8z M232.1,105.9l-4.1,3l0.1,0.4l4.7-3.4H232.1z M217.8,105.9h-0.6l4.6,3.4l0.1-0.4L217.8,105.9z
		 M220.4,114.3l-0.2,0.7l4.9-3.5l4.8,3.5l-0.2-0.6L225,111L220.4,114.3z M257.1,69.4v1.2c-1.1,16-14,28.8-29.9,29.9l-1.2,0.1h-0.6
		l0.2,0.5h0.5l1.2-0.1c15.9-1.1,28.8-13.9,29.9-29.9v-1.2v-2v-1.2c0-0.1-0.1-0.2-0.1-0.4v1V69.4z M195.7,69.8V68V67
		c0.9-14.6,12.7-26.4,27.4-27.3l1.1-0.1h1.8l1.1,0.1c14.6,0.9,26.1,12.5,27.3,26.9v-0.1c-1.1-14.6-12.7-26.4-27.4-27.3l-1.1-0.1
		h-1.8l-1.1,0.1c-14.7,0.9-26.5,12.7-27.4,27.3v1.1v1.8v1.1c0,0.1,0.1,0.3,0.1,0.4V69.8z M224.1,100.6l-1.3-0.1
		c-15.8-1-28.6-13.7-29.8-29.5v0.1c1.1,16,14,28.8,29.9,29.9l1.3,0.1h0.4l0.2-0.5H224.1z M251.7,69.2v1c-0.9,13.3-11.6,24-24.9,24.9
		h-1.1h-1.4h-1.1c-13.1-0.9-23.7-11.3-24.8-24.5v0.1c0.9,13.3,11.6,24,24.9,24.9h1.1h1.4h1.1c13.2-0.9,24-11.5,24.9-24.9v-1v-1.6v-1
		c0-0.1-0.1-0.2-0.1-0.4v0.9V69.2z M200.2,69.7v-1.5v-1c0.9-12.3,10.7-22.3,23.3-23.2h0.9h1.4h0.9c12.4,0.9,22.1,10.6,23.2,22.8
		v-0.1c-0.9-12.3-10.7-22.3-23.3-23.2h-0.9h-1.4h-0.9c-12.5,0.9-22.4,10.8-23.3,23.2v1v1.5v0.9c0,0.1,0,0.2,0.1,0.4V69.7z
		 M238.4,75.3c0,5.5-3.9,9.8-10,11v5.1c0,0.5-0.4,0.8-0.7,0.8h-5.5c-0.5,0-0.8-0.3-0.8-0.7v0.4c0,0.5,0.3,0.8,0.9,0.8h5.5
		c0.4,0,0.7-0.4,0.7-0.8v-5.1c6.1-1.2,10-5.5,10-11c0-0.7-0.1-1.4-0.2-2.1C238.4,74.2,238.4,74.8,238.4,75.3z M222.7,71.9
		c-4.2-1.4-9.1-3.7-10.3-8.7c1,5.3,6,7.7,10.4,9.2c4,1.3,5.2,2.4,5.5,3.6C228.2,74.6,227.2,73.4,222.7,71.9z M212.1,84.4
		c-0.2-0.1-0.2-0.2-0.3-0.3c0,0.3,0,0.7,0.4,0.8c2.3,1.3,5.7,2.2,9.1,2.5v-0.5C217.8,86.6,214.4,85.7,212.1,84.4z M235.2,58.9
		c0,0.2-0.2,0.4-0.4,0.5c-0.4,0.1-0.5,0.1-0.7,0l-0.4-0.2c-1.6-0.7-3.9-1.7-7.5-1.7c-2.5,0-3.9,0.8-3.9,2.3c0,0.1,0.1,0.2,0.1,0.3
		c0.1-1.4,1.5-2.1,3.9-2.1c3.6,0,5.9,1,7.5,1.7l0.4,0.2c0.2,0.1,0.4,0.1,0.7,0c0.2-0.2,0.4-0.4,0.4-0.5l1.6-6.3
		c0.1-0.3,0.1-0.5-0.1-0.7c0,0.1,0,0.1,0,0.2L235.2,58.9z M228.8,49.7V46c0-0.1,0-0.1-0.1-0.1L228.8,49.7
		C228.8,49.7,228.8,49.7,228.8,49.7z"/>
	<path class="st6" d="M253.5,97c-0.1,0-0.1,0.1-0.2,0.1c0.2-0.4,1.5-3.5-0.4-6.9c0.1-0.1,0.2-0.2,0.2-0.2
		C255.2,93.7,253.5,97,253.5,97z M222.9,105.9h-5.7l0.2,0.2h5.5L222.9,105.9z M205.2,105.4c0,0-3.9-5.5-11-0.5c0,0,0,0,0,0
		c6.9-4.7,10.7,0.7,10.7,0.7c-0.2,0.2-0.5,0.4-0.7,0.6C204.6,105.9,204.9,105.6,205.2,105.4z M239.5,106.5
		C239.5,106.5,239.6,106.5,239.5,106.5c0.1,0,2.9-2.4,2.6-6.6c0,0-1.6,0.4-3.1,1.5c1.4-1,2.9-1.4,2.9-1.4
		C242.1,103.7,240.1,106,239.5,106.5z M252.8,97.5c-0.9,0.6-1.4,1.3-1.6,1.7c0,0,0.1,0.1,0.1,0.1C251.3,99.4,251.7,98.4,252.8,97.5z
		 M247,102.7c0,0,2.1-3,0.6-7c0,0-0.2,0.1-0.6,0.4c0.2-0.2,0.4-0.2,0.4-0.2c1.4,3.5-0.2,6.3-0.5,6.9
		C246.9,102.7,247,102.7,247,102.7z M244.3,104.5C244.3,104.5,244.3,104.6,244.3,104.5c0,0.1,0.4-0.4,1.1-1
		C244.9,103.9,244.5,104.3,244.3,104.5z M192.7,55c0,0-0.8,3-3,4.6c2.4-1.6,3.2-4.8,3.2-4.8c-2.5-0.2-4.4,0.7-5.5,1.5
		C188.6,55.6,190.4,54.8,192.7,55z M227.9,45.2h-5.6c-0.2,0-0.3,0.1-0.5,0.2c0.1,0,0.2-0.1,0.3-0.1h5.6c0.5,0,0.9,0.4,0.9,0.8v4.2
		c2.9,0.2,5.5,0.8,7.7,1.9c0.4,0.2,0.5,0.5,0.4,1l-1.6,6.3c0,0.1-0.1,0.3-0.2,0.4c0,0,0.1,0,0.1,0c0.2-0.2,0.4-0.4,0.4-0.5l1.6-6.3
		c0.2-0.5,0-0.8-0.4-1c-2.2-1.1-4.8-1.7-7.7-1.9V46C228.8,45.6,228.5,45.2,227.9,45.2z M198.1,100.2c0.1,0,0.2-0.1,0.2-0.1
		c0,0-3.2-6.1-10.9-2.2c0,0,0,0,0,0C194.7,94.5,197.9,99.9,198.1,100.2z M187.9,86.9c0.1,0,0.2,0,0.2,0c0,0,0.3-6.8-8.3-7.3
		c0,0,0,0.1,0,0.2C187.4,80.3,187.9,85.9,187.9,86.9z M191.7,93.7c0.1,0,0.2,0,0.3-0.1c0,0-1.4-6.6-9.9-4.8c0,0,0,0,0.1,0.1
		C189.8,87.5,191.5,93,191.7,93.7z M257.2,93c0.1,0,0.1,0.1,0.2,0.1c0,0,0.3-1.6,1.7-2.8c0,0,0.7-3.6-2.3-6.6c0,0-0.1,0.1-0.2,0.2
		c2.9,3,2.2,6.5,2.2,6.5C257.8,91.4,257.3,92.4,257.2,93z M257,54.8c0,0,0,0.1,0,0.2c4.1-0.2,6.3,2.5,6.3,2.5c0,1.5,0.7,2.6,0.9,3
		c0.1,0,0.2,0,0.3,0c0,0-1-1.2-1-3.1C263.7,57.3,261.3,54.4,257,54.8z M264.8,65.8c0,0-1.6-3.3-5.8-4c0,0,0,0.1,0,0.2
		c4,0.8,5.5,4,5.5,4c-0.3,1.5,0,2.7,0.2,3.1c0.1,0,0.2,0,0.3,0C265.1,69.2,264.4,67.7,264.8,65.8z M214.5,77.1
		c1.6,0.9,5,2.3,8.9,2.3c0.8,0,2.7-0.1,3.9-1c-1.1,0.7-2.9,0.8-3.6,0.8c-3.9,0-7.3-1.4-8.9-2.3c-0.2-0.1-0.5-0.2-0.7-0.1
		c0,0-0.1,0.1-0.1,0.1C214,76.9,214.3,77,214.5,77.1z M268.5,77.2c3.4-2.4,3.7-7.3,3.7-7.3c-1.9,0.4-3.3,1.1-4.3,1.9
		c1-0.7,2.3-1.3,4.1-1.7C272,70,271.8,74.7,268.5,77.2z M259.9,69.8c0,0,0,0.1,0,0.2c3.9,1.5,4.7,5,4.7,5c-0.6,1.3-0.6,2.5-0.5,3
		c0.1,0,0.2,0.1,0.3,0.1c0,0-0.4-1.5,0.4-3.2C264.8,74.9,263.9,71.3,259.9,69.8z M258,77.6c0,0,0,0.1-0.1,0.3
		c3.5,2.1,3.8,5.7,3.8,5.7c-0.7,1.2-0.8,2.3-0.8,2.9c0.1,0,0.2,0.1,0.2,0.1c0,0-0.1-1.6,0.8-3.2C262,83.4,261.7,79.7,258,77.6z
		 M270.9,59.7c0,0,0.8,5.8-3,8.6c4.1-2.8,3.3-8.8,3.3-8.8c-1,0.4-1.9,0.9-2.6,1.5C269.2,60.5,270,60.1,270.9,59.7z M258.8,45.7
		c0.2,0,0.2,0,0.2,0C258.3,36,246.8,35,246.8,35c0,0.1,0,0.1,0,0.2C248.6,35.4,258,37,258.8,45.7z M253.8,48.9
		C253.8,48.9,253.8,48.9,253.8,48.9c3.9-1,6.7,1.2,6.7,1.2c0.4,1.6,1.4,2.5,1.6,2.8c0.1,0,0.2-0.1,0.3-0.1c0,0-1.3-1-1.7-2.8
		C260.7,49.8,257.7,47.6,253.8,48.9z M222.7,37.1h1.1h2h1.2c15.9,1.1,28.8,14,29.9,29.9v1.2v2v1.2c-0.7,9.9-5.9,18.6-13.6,24.1
		c7.8-5.4,13.1-14.2,13.8-24.2v-1.2v-2v-1.2c-1.1-15.9-14-28.8-29.9-29.9H226h-2h-1.1c-6,0.4-11.7,2.5-16.3,5.9
		C211.2,39.5,216.7,37.5,222.7,37.1z M263.2,52.3C263.2,52.3,263.2,52.3,263.2,52.3c4.7-4.5,0.3-11,0.3-11c-0.1,0.1-0.1,0.2-0.2,0.2
		C263.8,42.2,267.3,48,263.2,52.3z M265.9,60c5.1-3.5,2.4-10.5,2.4-10.5c-0.1,0.1-0.2,0.1-0.2,0.2C268.2,50.1,270.6,56.6,265.9,60z
		 M246.1,104.1c1.8-1.2,5-2.3,9.5,0.9c0,0,0,0-0.1,0.1c0.2-0.2,0.3-0.2,0.3-0.2C251.1,101.5,247.7,102.9,246.1,104.1z M183.9,69.2
		c0.1,0,0.1,0,0.2,0.1c0,0,2.7-6.3-5.2-9.7c0,0,0,0.1,0,0.3C185.6,62.8,184.3,68,183.9,69.2z M184.6,78.3c0.1,0,0.1,0,0.2,0
		c0,0,1.4-6.6-7-8.5c0,0,0,0.1,0,0.2C185.1,71.9,184.7,77.3,184.6,78.3z M204.9,108.7c4.4-3,8.2-0.1,8.2-0.1
		c-0.5,0.8-1.1,1.5-1.8,1.9c0.7-0.5,1.4-1.2,2-2.1C213.4,108.5,209.4,105.4,204.9,108.7z M186.7,52.3
		C186.7,52.3,186.8,52.3,186.7,52.3c0,0,5.2-4.3-0.1-11c0,0-0.1,0.1-0.2,0.3C191,47.3,187.6,51.4,186.7,52.3z M207.9,99.9
		c0,0.1,0,0.2,0,0.2c1.1,0.4,6.2,2.3,5.4,7.3c0.1,0.1,0.2,0.1,0.2,0.1C214.6,101.7,207.9,99.9,207.9,99.9z M184.4,60.2
		C184.4,60.2,184.5,60.3,184.4,60.2c0.1,0.1,4.2-5.4-2.7-10.7c0,0,0,0.1-0.1,0.3C187.5,54.5,185.1,59.2,184.4,60.2z M216.6,52.9
		c1.3-0.9,3-1.6,4.8-2v-0.1C219.6,51.3,218,52,216.6,52.9z M260.5,89.9c1.5-1,3.7-1.6,7.1-0.9c0,0-1.1,2.1-3.2,3.6
		c2.2-1.5,3.4-3.8,3.4-3.8C264.3,88.1,262,88.8,260.5,89.9z M269.9,79.7c0,0-0.9,3.8-3.7,6c3-2.1,3.9-6.1,3.9-6.1
		c-2.5,0.1-4.3,0.8-5.5,1.7C265.9,80.5,267.5,79.9,269.9,79.7z M196,49c0,0-0.9,1.8-2.7,3.1c1.9-1.3,2.9-3.3,2.9-3.3
		c-3.9-1.3-6.9,1-6.9,1c0,0,0,0,0,0C190,49.4,192.7,48,196,49z M236.6,108.5C236.6,108.5,236.6,108.5,236.6,108.5
		c1.1-0.7,5.9-3.2,10.6,2.7c0.2-0.1,0.3-0.1,0.3-0.1C242.1,104.3,236.6,108.5,236.6,108.5z M226.9,105.9l-1.5-4.6h-0.3l1.6,4.8h5.9
		l-4.8,3.5l1.7,5.2l0.4,0.3l-1.8-5.6l4.8-3.5H226.9z M253.6,98c1.7-1.2,4.6-2,8.7,0.1c0,0-0.6,0.6-1.6,1.3c1.1-0.8,1.8-1.5,1.8-1.5
		C258.2,95.7,255.3,96.7,253.6,98z M251.7,70.7v-1v-1.6v-1c-0.9-13.2-11.6-24-24.9-24.8l-1.1-0.1h-1.6l-0.9,0.1
		c-5,0.3-9.7,2.1-13.6,4.8c3.9-2.7,8.5-4.4,13.4-4.7l0.9-0.1h1.6l1.1,0.1c13.2,0.8,24,11.5,24.9,24.8v1v1.6v1
		c-0.6,8.3-4.9,15.5-11.2,20C246.7,86.4,251.2,79.1,251.7,70.7z M195.5,67.1v1.1V70v1.1c0.9,14.7,12.7,26.4,27.4,27.4l1.1,0.1h1.8
		l1.1-0.1c5.6-0.4,10.7-2.3,15-5.3c-4.2,2.9-9.3,4.8-14.8,5.2l-1.1,0.1h-1.8l-1.1-0.1c-14.7-1-26.5-12.7-27.4-27.4v-1.1V68V67
		c0.6-9,5.3-17,12.3-22C200.9,49.9,196,58,195.5,67.1z M198.7,99.4c3.5-4.8-1.7-9.3-1.7-9.3c-0.1,0.1-0.1,0.2-0.1,0.2
		c0.6,0.6,4.7,4.6,1.8,8.9C198.7,99.3,198.7,99.4,198.7,99.4z M200.2,68.2v-1c0.5-7.6,4.5-14.4,10.5-18.6
		c-6.1,4.2-10.1,11-10.7,18.7v1v1.5v0.9c0.9,12.3,10.7,22.4,23.3,23.2h0.9h1.4h0.9c4.8-0.3,9.1-1.9,12.8-4.5
		c-3.6,2.5-7.9,4.1-12.6,4.4h-0.9h-1.4h-0.9C210.9,93,201.1,83,200.2,70.6v-0.9V68.2z M233.8,84.6c2.9-2,4.7-5.2,4.7-8.8
		c0-5.5-3-8.8-9.8-11.3c-4.7-1.7-6.3-2.8-6.3-4.1c0-0.6,0.3-1.1,0.7-1.5c-0.6,0.4-1,1-1,1.7c0,1.4,1.6,2.4,6.3,4.1
		c6.8,2.4,9.8,5.8,9.8,11.3C238.3,79.5,236.6,82.6,233.8,84.6z M203,35.2c-0.9,4.6-2.8,7.3-4.8,8.8c2.1-1.5,4.2-4.2,5.1-9
		c0,0-4.5,0.4-8.1,3.1C198.7,35.5,203,35.2,203,35.2z M228.5,91.9v-5c-0.1,0-0.2,0-0.2,0.1v5.1c0,0.2-0.1,0.4-0.2,0.6
		C228.3,92.6,228.5,92.3,228.5,91.9z M187.6,77.2c3.4-2.4,2.5-7.4,2.5-7.4c-0.8,0.3-1.5,0.7-2.1,1.1c0.5-0.4,1.2-0.7,1.9-1
		C189.9,70,190.8,74.8,187.6,77.2z M205.6,104.6c2.8-5.4-3.2-8.9-3.2-8.9c0,0.1-0.1,0.2-0.1,0.3c0.9,0.6,5.5,3.8,3.2,8.5
		C205.6,104.5,205.6,104.6,205.6,104.6z M188,68.2c3-2,3-6.3,3-6.3c-1.6,0.3-2.8,0.9-3.7,1.6c0.9-0.6,2-1.2,3.5-1.4
		C190.7,62,190.7,66.1,188,68.2z M193.2,83.7c-0.1,0.1-0.1,0.1-0.2,0.2c0.4,0.6,3.7,5.6-0.4,9.2c0,0,0,0,0,0
		C197.3,89.3,193.2,83.7,193.2,83.7z M192,77.6c-0.3,0.2-0.5,0.3-0.8,0.5c0.2-0.1,0.4-0.2,0.6-0.4c0,0,2,5.3-1.7,8.1
		C194,83.1,192,77.6,192,77.6z"/>
</g>
<g>
	<path class="st1" d="M101.8,83.4c-0.6,2.2-1.3,4.4-2.2,6.3c-5,10.9-14.3,20-28.9,25.3c0,0,0,0,0,0c0,0,0,0,0,0
		c-14.5-5.3-23.8-14.4-28.9-25.3c-4-8.7-4.8-20.9-5-30.1c0,0,0,0,0,0c-0.1-3.2,0-5.9,0-8.1l33.8-15.1l0,0l0,0L81,41.1
		c0.1,0.5,0.1,1,0.2,1.4c0,0.5-0.1,1.3-0.2,1.6c-0.4,1.2-1,2.7-1.5,4.3l-8.8-4.1L43.9,56.8c0.3,9.5,0.7,21.9,4.4,29.9
		c4.3,9.4,11.9,16.4,22.4,20.9c10.5-4.5,18.1-11.4,22.4-20.9c0.3-0.6,0.5-1.2,0.7-1.8L101.8,83.4z M112.1,58
		c-0.6-0.4-0.9-1.8-0.5-2.5c0.4-0.6,0.6-1.3,0.6-2c0.2-2.3-1.8-3.8-4-3.4c-0.2,0-1.2,0.2-1.2,0.2l-14,2.6c-0.2-2.8,0-5.6-0.4-7.7
		c-0.3-1.9-0.8-3.4-1.8-5.6c-0.4-0.8-2.1-3.4-3.8-4.2c-0.1,0-0.2-0.1-0.2-0.1c0,0-0.1,0-0.1,0c-0.1,0-0.1,0-0.2-0.1c0,0-0.1,0-0.1,0
		c0,0-0.1,0-0.1,0c0,0-0.1,0-0.1,0c0,0-0.1,0-0.1,0c0,0-0.1,0-0.1,0c0,0-0.1,0-0.1,0c0,0-0.1,0-0.1,0c0,0-0.1,0-0.1,0
		c0,0-0.1,0-0.1,0c0,0-0.1,0-0.1,0c0,0-0.1,0-0.1,0c0,0,0,0,0,0c-0.1,0-0.1,0-0.2,0c0,0,0,0,0,0c-0.1,0-0.1,0-0.2,0.1c0,0,0,0,0,0
		c-0.1,0-0.1,0.1-0.2,0.1c0,0,0,0,0,0c0,0-0.1,0.1-0.1,0.1c-0.3,0.3-0.4,0.7-0.3,1.4c0.2,1.1,0.7,3.6,0.9,5.3
		c0.1,1.1-0.1,2.4-0.4,3.4c-1.1,2.9-2.9,8.8-3.8,11.1c-0.8,2-1.7,2.7-2,2.9c-0.3,0.2-0.9,0.6-1.3,0.9l0.3-3.8c0.1-0.7-0.4-1.1-1.1-1
		l-14.2,2.6c-0.6,0.1-1.2,0.8-1.3,1.4l-0.5,6.5l-1.6,20.5c0,0.5,0.2,0.8,0.6,1c0.1,0,0.3,0.1,0.5,0l1-0.2L74.5,85
		c0.6-0.1,1.2-0.8,1.3-1.4l0.3-3.5c1.2-0.2,2.7-0.5,3.6-0.7c0,0,0,0,0,0c1.8-0.3,4.5,1.7,4.9,2c0.2,0.2,0.7,0.5,1.7,0.7
		c0.5,0.1,1.1,0,1.8-0.1c0.2,0,0.6-0.1,1.1-0.2c0.8-0.1,1.6-0.3,1.6-0.3l14.3-2.7c0,0,0.5-0.1,0.7-0.1c1.7-0.3,3.5-2.1,3.7-3.9
		c0-0.6-0.1-1.1-0.3-1.5c-0.4-0.8,0.8-1.9,1.5-2.7c0.6-0.7,1-1.6,1.1-2.5c0.1-0.8-0.1-1.4-0.5-1.9c-0.4-0.5,0.2-1.9,0.9-2.8
		c0.7-0.8,1.2-1.8,1.3-2.8C113.3,59.4,112.8,58.5,112.1,58z"/>
	<path class="black_x0020_30_x0025_" d="M70.5,107.5c-0.1,0.1-0.2,0.1-0.4,0.2C59.6,103.2,52,96.2,47.7,86.8c-3.7-8-4-20.4-4.4-29.9
		l26.8-12.5l0.2,0.1L43.9,56.8c0.3,9.5,0.7,21.9,4.4,29.9C52.6,96,60.1,103,70.5,107.5z M77.1,60.5c0.2-0.1,0.4-0.3,0.6-0.4l0.3-3.5
		c0.1-0.7-0.4-1.1-1.1-1l-0.3,0.1c0.5,0,0.9,0.4,0.8,1L77.1,60.5z M85.2,35.1c0,0,0.1,0,0.1,0c0,0,0.1,0,0.1,0c0,0,0.1,0,0.1,0
		c0,0,0.1,0,0.1,0c0,0,0.1,0,0.1,0c0,0,0.1,0,0.1,0c0,0,0.1,0,0.1,0c0.1,0,0.1,0,0.2,0.1c0,0,0.1,0,0.1,0c0.1,0,0.2,0.1,0.2,0.1
		c1.7,0.8,3.4,3.3,3.8,4.2c1,2.3,1.5,3.8,1.8,5.6c0.4,2.1,0.2,5,0.4,7.7l0.5-0.1c-0.2-2.7,0-5.6-0.4-7.7c-0.3-1.9-0.8-3.4-1.8-5.6
		c-0.4-0.8-2.1-3.4-3.8-4.2c-0.1,0-0.2-0.1-0.2-0.1c0,0-0.1,0-0.1,0c-0.1,0-0.1,0-0.2-0.1c0,0-0.1,0-0.1,0c0,0-0.1,0-0.1,0
		c0,0-0.1,0-0.1,0c0,0-0.1,0-0.1,0c0,0-0.1,0-0.1,0c0,0-0.1,0-0.1,0c0,0-0.1,0-0.1,0c0,0-0.1,0-0.1,0c0,0-0.1,0-0.1,0
		c0,0-0.1,0-0.1,0C85.3,35,85.3,35,85.2,35.1C85.3,35,85.2,35,85.2,35.1c0,0-0.1,0-0.1,0c0,0,0,0,0,0C85.1,35.1,85.1,35.1,85.2,35.1
		z M112.1,58c-0.6-0.4-0.9-1.8-0.5-2.5c0.4-0.6,0.6-1.3,0.6-2c0.2-2.3-1.8-3.8-4-3.4c0,0-0.1,0-0.1,0c2-0.1,3.7,1.3,3.5,3.5
		c-0.1,0.7-0.3,1.4-0.6,2c-0.4,0.7-0.1,2.1,0.5,2.5c0.7,0.6,1.2,1.5,1.1,2.6c-0.1,1-0.6,2-1.3,2.8c-0.7,0.8-1.3,2.2-0.9,2.8
		c0.4,0.5,0.6,1.2,0.5,1.9c-0.1,0.9-0.5,1.8-1.1,2.5c-0.7,0.8-1.9,1.9-1.5,2.7c0.2,0.4,0.4,0.9,0.3,1.5c-0.1,1.8-1.9,3.6-3.7,3.9
		c-0.1,0-0.7,0.1-0.7,0.1l-14.3,2.7c0,0-0.8,0.2-1.6,0.3c-0.4,0.1-0.8,0.2-1.1,0.2c0,0-0.1,0-0.1,0c0.2,0,0.4,0,0.6-0.1
		c0.2,0,0.6-0.1,1.1-0.2c0.8-0.1,1.6-0.3,1.6-0.3l14.3-2.7c0,0,0.5-0.1,0.7-0.1c1.7-0.3,3.5-2.1,3.7-3.9c0-0.6-0.1-1.1-0.3-1.5
		c-0.4-0.8,0.8-1.9,1.5-2.7c0.6-0.7,1-1.6,1.1-2.5c0.1-0.8-0.1-1.4-0.5-1.9c-0.4-0.5,0.2-1.9,0.9-2.8c0.7-0.8,1.2-1.8,1.3-2.8
		C113.3,59.4,112.8,58.5,112.1,58z M99,89.8c-5,10.8-14.2,19.9-28.5,25.2c0,0,0.1,0,0.1,0.1c0,0,0,0,0,0c0,0,0,0,0,0
		c14.5-5.3,23.8-14.4,28.9-25.3c0.9-1.9,1.6-4.1,2.2-6.3l-0.6,0.1C100.7,85.7,99.9,87.8,99,89.8z M80.5,41.1c0.1,0.5,0.1,1,0.2,1.4
		c0,0.5-0.1,1.3-0.2,1.6c-0.4,1.1-0.9,2.5-1.4,4.1l0.5,0.2c0.5-1.6,1.1-3.2,1.5-4.3c0.1-0.3,0.2-1.1,0.2-1.6c0-0.4-0.1-0.9-0.2-1.4
		l-10.3-4.6l0,0l0,0l-0.3,0.1L80.5,41.1z M60.3,87.7l1-0.2L74.5,85c0.6-0.1,1.2-0.8,1.3-1.4l0.3-3.5c1.1-0.2,2.5-0.5,3.4-0.6
		c-0.1,0-0.2,0-0.3,0c0,0,0,0,0,0c-0.9,0.2-2.4,0.4-3.6,0.7l-0.3,3.5c-0.1,0.7-0.6,1.3-1.3,1.4l-13.2,2.5l-0.6,0.1
		C60.2,87.7,60.3,87.7,60.3,87.7z"/>
	<path class="white_x0020_50_x0025_" d="M93.9,84.9l8-1.5c0,0.1-0.1,0.2-0.1,0.3l-7.6,1.4c-0.2,0.6-0.5,1.2-0.7,1.8
		c-4.3,9.4-11.9,16.4-22.4,20.9c-5-2.1-9.3-4.8-12.9-8c3.6,3.1,7.8,5.7,12.6,7.7c10.5-4.5,18.1-11.4,22.4-20.9
		C93.4,86.1,93.6,85.5,93.9,84.9z M59.7,87.6c-0.1-0.2-0.2-0.4-0.2-0.7l1.6-20.5l0.5-6.5c0.1-0.7,0.6-1.3,1.3-1.4l14.2-2.6
		c0.2,0,0.4,0,0.6,0.1c-0.2-0.3-0.5-0.4-0.9-0.3l-14.2,2.6c-0.6,0.1-1.2,0.8-1.3,1.4l-0.5,6.5l-1.6,20.5
		C59.2,87.1,59.4,87.4,59.7,87.6z M42.1,90c-4-8.7-4.8-20.9-5-30.1c0,0,0,0,0,0c-0.1-3.2,0-5.9,0-8.1L71,36.7l0,0l0,0l10,4.5
		c0,0,0-0.1,0-0.1l-10.3-4.6l0,0l0,0L36.8,51.6c0,2.2,0,4.9,0,8.1c0,0,0,0,0,0c0.2,9.2,1,21.4,5,30.1c2.7,5.8,6.6,11.1,11.8,15.6
		C48.5,100.9,44.7,95.6,42.1,90z M85.2,42.1c0.1,1.1-0.1,2.4-0.4,3.4c-1.1,2.9-2.9,8.8-3.8,11.1c-0.8,2-1.7,2.7-2,2.9
		c-0.2,0.2-0.6,0.4-1,0.7l0,0.5c0.4-0.3,1-0.7,1.3-0.9c0.3-0.2,1.2-0.9,2-2.9c1-2.4,2.7-8.3,3.8-11.1c0.4-1,0.5-2.4,0.4-3.4
		c-0.2-1.7-0.7-4.2-0.9-5.3c-0.1-0.6,0-1.1,0.3-1.4c0,0,0.1-0.1,0.1-0.1c0,0,0,0,0,0c0.1,0,0.1-0.1,0.2-0.1c0,0,0,0,0,0
		c0.1,0,0.1-0.1,0.2-0.1c0,0,0,0,0,0c0,0,0.1,0,0.2,0c0,0,0,0,0,0c0,0,0.1,0,0.1,0c0,0,0.1,0,0.1,0c0,0,0.1,0,0.1,0c0,0,0.1,0,0.1,0
		c0,0,0.1,0,0.1,0c0,0,0.1,0,0.1,0c0,0,0.1,0,0.1,0c0,0,0.1,0,0.1,0c0,0,0.1,0,0.1,0c0,0,0.1,0,0.1,0c0,0,0.1,0,0.1,0
		c0.1,0,0.1,0,0.2,0.1c0,0,0.1,0,0.1,0c0.1,0,0.2,0.1,0.2,0.1c0.4,0.2,0.7,0.4,1.1,0.7c-0.4-0.4-0.9-0.8-1.4-1
		c-0.1,0-0.2-0.1-0.2-0.1c0,0-0.1,0-0.1,0c-0.1,0-0.1,0-0.2-0.1c0,0-0.1,0-0.1,0c0,0-0.1,0-0.1,0c0,0-0.1,0-0.1,0c0,0-0.1,0-0.1,0
		c0,0-0.1,0-0.1,0c0,0-0.1,0-0.1,0c0,0-0.1,0-0.1,0c0,0-0.1,0-0.1,0c0,0-0.1,0-0.1,0c0,0-0.1,0-0.1,0c0,0-0.1,0-0.1,0c0,0,0,0,0,0
		c-0.1,0-0.1,0-0.2,0c0,0,0,0,0,0c-0.1,0-0.1,0-0.2,0.1c0,0,0,0,0,0c-0.1,0-0.1,0.1-0.2,0.1c0,0,0,0,0,0c0,0-0.1,0.1-0.1,0.1
		c-0.3,0.3-0.4,0.7-0.3,1.4C84.5,37.8,85,40.3,85.2,42.1z M93.4,53.1l14-2.6c0,0,1-0.2,1.2-0.2c1.1-0.2,2.1,0,2.8,0.6
		c-0.7-0.7-1.9-1.1-3.1-0.9c-0.2,0-1.2,0.2-1.2,0.2l-13.7,2.6C93.4,52.9,93.4,53,93.4,53.1z"/>
</g>
<g>
	<path class="st1" d="M420,47l-11.4,3.3c-0.2,0-0.3,0-0.4-0.1c-0.1-0.1-0.3-0.2-0.4-0.4c-0.1-0.2-0.3-0.3-0.4-0.5l-1.6-2.9
		c0.1-0.2,0.4-0.4,0.6-0.5l14.2-3.9l-2.8-3.7c-0.2-0.2-0.3-0.4-0.5-0.7c-0.3-0.3-0.5-0.6-0.8-1l-0.8-1l-1.3-0.1
		c-5.7-0.5-11.2-1.2-16.7,1.1c-5.3,2.1-6.6,5.7-6.3,10.5c-0.7,0.4-1.4,0.7-2,1.1l-1.9,1c-0.6-2.5-1.6-5.5-2.8-6.6
		c-1.7-1.6-4.8-1.4-6.9-0.7c-2,0.7-3.7,2-4.6,3.7c-3.4-1.1-8.3,0.7-9.8,4c-3-0.4-6,0.6-7.6,3.4c-0.5,0.8-0.7,1.7-0.8,2.6
		c-0.8,0-1.6,0.2-2.4,0.6c-3.8,2-4.9,5.7-3.4,9.2c-4.7,1.6-9.5,3-14.1,4.9c-4.5,1.9-7.1,8.2-5.1,12.7c0.7,1.5,1.8,2.8,3.1,3.8
		c2.7,1.9,6.8,2.8,9.8,1.2l12.3-6.4c0.7,1.6,1.6,2.8,2.7,4.1l-1.3,17.7l38,11.3l-6.2-25.8c3-5.8,10.6-17.9,10-23.6l0-0.2l-1-4.1
		c0.3-0.1,0.6-0.3,0.9-0.4c1.8,1.6,4,2.6,6.5,2.6c4,0,7.6-2.5,10.5-5c1.5-1.3,2.8-2.6,4.2-4l1.1-1.1l-0.1-1.5L420,47z M381.7,44.5
		c0.8,0.7,2.1,5.5,2.3,7.2l-1.9,0.5c-2.6-0.3-3.9-0.4-4.7-0.5c-0.3,0-1,0-1.6,0.3l-1.1-3.5C375,44.1,380.9,43.7,381.7,44.5z
		 M372.3,48.9l1.4,4c-3.5,2.3-1.1,7.2,2.1,9c0.4,3.1-5.4,3.7-6,2.2c-1.4-4-3.3-8.6-4.5-12.7C365.3,48.6,371,47.1,372.3,48.9z
		 M363.2,52.7c0.5,1.3,0.9,2.6,1.4,3.9c1,2.8,2,5.6,3,8.4c-0.4,3.1-4.3,3.8-6.1,1.6c-1.3-3-2.5-6.1-3.8-9.1
		C356.4,54.5,359.1,51.4,363.2,52.7z M353.3,58.7c0.9-0.5,1.7-0.3,2.2,1l3.2,8c1.1,2.7-3.6,3.4-4.3,1.6l-2.3-3.9
		C349.9,62.4,351,60,353.3,58.7z M341.4,85.3L341.4,85.3L341.4,85.3c-0.2,0.1-0.4,0.2-0.6,0.2c-0.1,0-0.1,0-0.2,0
		c-0.2,0-0.4,0.1-0.5,0.1c-0.1,0-0.1,0-0.2,0c-0.2,0-0.5,0-0.7,0c-0.1,0-0.1,0-0.2,0c-0.2,0-0.4,0-0.6-0.1c-0.1,0-0.1,0-0.2,0
		c-0.3,0-0.5-0.1-0.8-0.2c0,0,0,0,0,0c-0.3-0.1-0.5-0.2-0.8-0.3c-0.1,0-0.1-0.1-0.2-0.1c-0.2-0.1-0.4-0.2-0.6-0.3
		c-0.1,0-0.1-0.1-0.2-0.1c-0.2-0.1-0.5-0.3-0.7-0.4c0,0,0,0,0,0c0,0,0,0,0,0c-0.9-0.6-1.6-1.4-2-2.4c-1.4-3.3,1-7.5,3.4-8.6
		c4.9-2.1,9.9-3.4,14.8-5.2l0.7,1l0,0l1.1,1.7c0.1,0.3,0.3,0.6,0.5,0.8c0.2,0.3,0.5,0.5,0.8,0.7c0,0,0.1,0,0.1,0
		c0.3,0.2,0.6,0.4,1,0.5c0,0,0,0,0,0c0.3,0.1,0.7,0.2,1,0.2c0.1,0,0.2,0,0.3,0c0.3,0,0.6,0,1,0c0.1,0,0.1,0,0.2,0
		c0.3,0,0.7-0.1,1-0.2c0.1,0,0.2,0,0.3-0.1c0.3-0.1,0.6-0.2,0.9-0.4c0,0,0.1-0.1,0.1-0.1c0.3-0.2,0.5-0.3,0.8-0.5
		c0.1-0.1,0.1-0.1,0.2-0.2c0.3-0.2,0.5-0.5,0.7-0.8c0,0,0,0,0,0c0.1-0.1,0.1-0.3,0.2-0.4c0.1-0.2,0.2-0.3,0.2-0.5l0,0c0,0,0,0,0,0v0
		l0,0c0.4,0.2,0.8,0.3,1.2,0.5c0.4,0.1,0.8,0.2,1.2,0.2c2.4,0.2,4.9-1,5.9-3.4c0.2,0.1,0.5,0.2,0.7,0.2c0.1,0,0.1,0,0.2,0
		c0.2,0,0.3,0.1,0.5,0.1c0.1,0,0.2,0,0.2,0c0.2,0,0.4,0,0.6,0c0.1,0,0.1,0,0.2,0c0.3,0,0.5,0,0.8-0.1c0.4-0.1,0.9-0.1,1.3-0.3
		c0.2-0.1,0.4-0.1,0.7-0.2c1-0.4,2-1,2.6-1.9c0.2-0.2,0.3-0.5,0.5-0.8c0-0.1,0.1-0.1,0.1-0.2c0.1-0.3,0.2-0.6,0.3-0.9v0v0
		c0,0,0,0,0,0c0.1,0,0.1,0.1,0.2,0.1c0.1,0.1,0.3,0.2,0.4,0.3c0.1,0,0.1,0.1,0.2,0.1c0.1,0,0.1,0.1,0.2,0.1c0.1,0,0.1,0.1,0.2,0.1
		c0.4,0.2,0.8,0.3,1.2,0.4L341.4,85.3z M388.6,80.2L388.6,80.2l-11.3,16.7l6.7-5.7c0.9,6.3,2.4,12.6,3.4,19.1l-26.3-8.9l-0.6-14.5
		c1.4,0.7,2.8,1.5,4.1,2.2c-2.6-2.7-4.7-5-6.3-8.1l16.5-8.6l-0.8,4.1l8.2-9.9l4.8,1.5c-0.9-0.9-1.8-1.8-2.7-2.7
		c-1-2.9,0.6-3.7,1.6-5.7c-3.6,2.5-8.4,2.5-11.1-0.8c-0.7-1-1.7-3.6,0.3-4.5c0,0,0,0,0.1,0c0.5-0.2,1.1-0.4,1.6-0.5
		c0.1,0,0.2,0,0.3,0c1.5,0.2,3.7,0.4,5.2,0.6c1.9-0.3,3.7-0.8,5.6-1.1c1.7-0.3,3.5,0.2,4.1,2c0.8,3.6,1.7,7.1,2.5,10.7
		C395.1,69.8,391.5,75.7,388.6,80.2z M417.2,52.2c-2.5,2.4-5.5,5.5-8.7,7.1c-0.2,0.1-0.4,0.2-0.6,0.3c-1,0.4-2,0.7-3,0.7
		c-2,0.1-4-0.8-6-3.2c-1.1,0.5-2.2,1-3.3,1.5v0l0,0l-0.2-0.8l0,0l-0.8-3.4l0-0.2l0,0l-0.1-0.2c-0.1-0.2-0.2-0.4-0.3-0.6
		c0,0,0-0.1-0.1-0.1c0,0,0-0.1-0.1-0.1c-0.1-0.1-0.2-0.3-0.3-0.4c0,0,0,0,0,0c-0.1-0.1-0.1-0.1-0.2-0.2c-0.1-0.1-0.2-0.3-0.3-0.4
		c-0.1-0.1-0.2-0.2-0.2-0.2c-0.1-0.1-0.3-0.3-0.5-0.4c-0.5-0.3-1.1-0.6-1.8-0.6c1.3-0.7,2.6-1.4,3.9-2.1c-0.6-4.8-0.3-7.5,4.2-9.3
		c5.2-2.1,11.1-1.2,15.3-0.8c0.2,0.3,0.5,0.6,0.7,0.9c0,0,0,0,0,0c0.2,0.2,0.3,0.4,0.5,0.6h0l0,0l-9.8,2.7c-0.4,0.1-0.8,0.4-1.2,0.6
		c-0.3,0.2-0.6,0.4-0.8,0.7c-0.8,1-1.2,2.4-0.6,3.5l1.7,3.1c0.1,0.2,0.3,0.4,0.4,0.6c0,0.1,0.1,0.1,0.2,0.2c0.1,0.1,0.2,0.2,0.3,0.3
		c0.1,0.1,0.2,0.2,0.3,0.3c0.1,0.1,0.2,0.2,0.3,0.2c0.1,0.1,0.2,0.2,0.3,0.2c0.9,0.7,2,1,3.2,0.6l7.7-2.2l0.1,1.2l0,0L417.2,52.2
		L417.2,52.2L417.2,52.2z M335.9,81.4C335.9,81.4,335.9,81.4,335.9,81.4c0.1,0.1,0.2,0.2,0.2,0.3c0.1,0.1,0.1,0.1,0.2,0.2
		c0,0,0,0,0.1,0.1c0.1,0.1,0.2,0.1,0.2,0.2c0.1,0.1,0.2,0.1,0.3,0.2c1,0.6,2.2,0.7,3.3,0.2c1.8-0.8,2.7-2.9,1.9-4.7
		c-0.2-0.4-0.4-0.7-0.7-1c0,0-0.1-0.1-0.1-0.1c-0.1-0.1-0.2-0.2-0.3-0.3c-1.8-1.1-3.7-0.5-4.7,0.6C335.1,78.2,335,80,335.9,81.4z"/>
	<path class="white_x0020_50_x0025_" d="M375.8,61.9c0.2,0.1,0.4,0.2,0.5,0.3c0.4,2.9-4.8,3.6-5.9,2.5
		C372.2,65.3,376.1,64.5,375.8,61.9z M336,81.4c0.1,0.1,0.1,0.2,0.2,0.2c0.1,0.1,0.1,0.1,0.2,0.2c0,0,0,0,0.1,0.1
		c0.1,0.1,0.2,0.1,0.2,0.2c0.1,0.1,0.2,0.1,0.3,0.2c0.1,0.1,0.2,0.1,0.3,0.1c0,0,0,0,0,0c-0.1-0.1-0.2-0.1-0.2-0.2c0,0,0,0-0.1-0.1
		c-0.1-0.1-0.1-0.1-0.2-0.2c-0.1-0.1-0.1-0.2-0.2-0.2c0,0,0,0,0,0c-0.9-1.4-0.8-3.2,0.3-4.3c1-1.1,2.7-1.6,4.4-0.8
		c-0.1-0.1-0.1-0.1-0.2-0.2c-1.8-1.1-3.7-0.5-4.7,0.6C335.1,78.2,335,80,336,81.4C335.9,81.4,335.9,81.4,336,81.4z M392.1,55.2
		c0.8,3.6,1.7,7.1,2.5,10.7c0.4,3.9-3.2,9.8-6,14.3l0,0l-11.3,16.7l1.8-1.5l10-14.8l0,0c2.9-4.5,6.5-10.3,6-14.3
		c-0.8-3.6-1.7-7.1-2.5-10.7c-0.3-0.8-0.8-1.3-1.5-1.6C391.5,54.2,391.9,54.7,392.1,55.2z M386,59.5c-2.9,1.9-6.5,2.4-9.2,0.8
		c2.4,1.7,5.7,1.6,8.6,0.1C385.6,60.2,385.8,59.9,386,59.5z M351.8,69.1L351.8,69.1l1.1,1.7c0.1,0.3,0.3,0.6,0.5,0.8
		c0.2,0.3,0.5,0.5,0.8,0.7c0,0,0.1,0,0.1,0c0.1,0.1,0.3,0.2,0.4,0.2c-0.3-0.2-0.5-0.4-0.7-0.7c-0.2-0.2-0.4-0.5-0.5-0.8l-1.1-1.7
		l0,0l-0.7-1c-0.1,0-0.2,0.1-0.3,0.1L351.8,69.1z M401.6,59.5c1.3,0.9,2.5,1.2,3.8,1.2c1,0,2-0.3,3-0.7c0.2-0.1,0.4-0.2,0.6-0.3
		c3.2-1.6,6.2-4.7,8.7-7.1v0l0-0.1l0,0l-0.1-1.2l-0.5,0.1l0.1,0.7l0,0l0,0.1v0c-2.5,2.4-5.5,5.5-8.7,7.1c-0.2,0.1-0.4,0.2-0.6,0.3
		c-1,0.4-2,0.7-3,0.7C403.8,60.3,402.7,60.1,401.6,59.5z M415.3,39.7C415.3,39.7,415.3,39.7,415.3,39.7c-0.2-0.3-0.5-0.6-0.7-0.9
		c-0.1,0-0.2,0-0.3,0c0.1,0.2,0.3,0.4,0.4,0.6c0,0,0,0,0,0c0.2,0.2,0.3,0.4,0.5,0.6h0l0,0l-9.8,2.7c-0.4,0.1-0.8,0.4-1.2,0.6
		c-0.3,0.2-0.6,0.4-0.8,0.7c-0.8,1-1.2,2.4-0.6,3.5l1.7,3.1c0.1,0.2,0.3,0.4,0.4,0.6c0,0.1,0.1,0.1,0.2,0.2c0.1,0.1,0.2,0.2,0.3,0.3
		c0.1,0.1,0.2,0.2,0.3,0.3c0.1,0.1,0.2,0.2,0.3,0.2c0.1,0.1,0.2,0.2,0.3,0.2c0.2,0.1,0.3,0.2,0.5,0.3c-0.1-0.1-0.2-0.1-0.3-0.2
		c-0.1-0.1-0.2-0.2-0.3-0.2c-0.1-0.1-0.2-0.2-0.3-0.3c-0.1-0.1-0.2-0.2-0.3-0.3c-0.1-0.1-0.1-0.1-0.2-0.2c-0.1-0.2-0.3-0.4-0.4-0.6
		l-1.7-3.1c-0.6-1.2-0.3-2.5,0.6-3.5c0.2-0.3,0.5-0.5,0.8-0.7c0.4-0.3,0.8-0.5,1.2-0.6l9.8-2.7l0,0h0
		C415.6,40.1,415.5,39.9,415.3,39.7z M392.6,51.4c-0.3-0.2-0.6-0.3-1-0.5c-0.1,0.1-0.2,0.1-0.3,0.2c0.6,0,1,0.2,1.5,0.4
		C392.7,51.5,392.6,51.5,392.6,51.4z M398.9,57.1c-1,0.4-2,0.9-2.9,1.3l0.1,0.5l0,0v0c1-0.5,2.1-0.9,3.1-1.4
		C399.1,57.3,399,57.2,398.9,57.1z M379.6,63.8C379.6,63.8,379.5,63.8,379.6,63.8C379.6,63.8,379.6,63.8,379.6,63.8
		c0.1,0.1,0.2,0.1,0.2,0.2c0.1,0,0.1,0.1,0.2,0.1c-0.1,0-0.1-0.1-0.2-0.1C379.7,63.8,379.6,63.8,379.6,63.8
		C379.6,63.8,379.6,63.8,379.6,63.8z M420,47l-11.4,3.3c-0.1,0-0.1,0-0.1,0c0.1,0.1,0.2,0.2,0.3,0.2c0.1,0.1,0.2,0.1,0.4,0.1
		l10.9-3.1L420,47z M374.1,76.3l0.8-0.9l0.5-2.8l-0.7,0.4L374.1,76.3z M381.2,64.7l-3.2,1.7c-0.5,0.5-1.2,0.8-1.9,1.1
		c-0.2,0.1-0.4,0.2-0.7,0.2c0,0-0.1,0-0.1,0l-33.9,17.6l0,0c-0.2,0.1-0.4,0.2-0.6,0.2c-0.1,0-0.1,0-0.2,0c-0.2,0-0.4,0.1-0.5,0.1
		c-0.1,0-0.1,0-0.2,0c-0.2,0-0.5,0-0.7,0c-0.1,0-0.1,0-0.2,0c-0.2,0-0.4,0-0.6-0.1c-0.1,0-0.1,0-0.2,0c-0.3,0-0.5-0.1-0.8-0.2
		c0,0,0,0,0,0c-0.3-0.1-0.5-0.2-0.8-0.3c-0.1,0-0.1-0.1-0.2-0.1c-0.2-0.1-0.4-0.2-0.6-0.3c-0.1,0-0.1-0.1-0.2-0.1
		c0,0-0.1-0.1-0.1-0.1c0.2,0.1,0.4,0.3,0.7,0.4c0.1,0,0.1,0.1,0.2,0.1c0.2,0.1,0.4,0.2,0.6,0.3c0.1,0,0.1,0.1,0.2,0.1
		c0.3,0.1,0.5,0.2,0.8,0.3c0,0,0,0,0,0c0.3,0.1,0.5,0.1,0.8,0.2c0.1,0,0.1,0,0.2,0c0.2,0,0.4,0,0.6,0.1c0.1,0,0.1,0,0.2,0
		c0.3,0,0.5,0,0.7,0c0.1,0,0.1,0,0.2,0c0.2,0,0.4-0.1,0.5-0.1c0.1,0,0.1,0,0.2,0c0.2-0.1,0.4-0.1,0.6-0.2l0,0l40-20.7
		C381.6,64.9,381.4,64.8,381.2,64.7z M398.8,61.3C398.8,61.3,398.7,61.3,398.8,61.3c0.4,0.4,0.8,0.7,1.3,1
		C399.6,62,399.2,61.7,398.8,61.3z M387.9,48.9c0,0.2,0.1,0.4,0.1,0.5l1.9-1c0.7-0.4,1.4-0.7,2-1.1c-0.3-4.8,1-8.4,6.3-10.5
		c5.5-2.2,11-1.6,16.7-1.1l1,0.1l-0.3-0.3l-1.3-0.1c-5.7-0.5-11.2-1.2-16.7,1.1c-5.3,2.1-6.6,5.7-6.3,10.5c-0.7,0.4-1.4,0.7-2,1.1
		L387.9,48.9z M388,110.5c-1-6.4-2.5-12.7-3.4-19.1l-0.4,0.4c0.9,6.1,2.3,12.2,3.3,18.4l-25.8-8.8l0,0.2L388,110.5z M357.2,103.8
		l1.2-17.5c-1.1-1.3-2-2.5-2.7-4.1l-0.3,0.2c0.6,1.4,1.5,2.4,2.5,3.6l-1.3,17.7L357.2,103.8z M333.7,87.3c-1.4-1-2.5-2.2-3.1-3.8
		c-1.9-4.5,0.6-10.8,5.1-12.7c4.6-2,9.4-3.3,14.1-4.9c-1.4-3.5-0.3-7.2,3.4-9.2c0.8-0.4,1.6-0.6,2.4-0.6c0.1-0.9,0.4-1.8,0.8-2.6
		c1.6-2.8,4.6-3.9,7.6-3.4c1.5-3.3,6.4-5.1,9.8-4c0.9-1.8,2.6-3,4.6-3.7c1.8-0.6,4.3-0.9,6,0.1c-1.8-1.3-4.6-1.1-6.6-0.4
		c-2,0.7-3.7,2-4.6,3.7c-3.4-1.1-8.3,0.7-9.8,4c-3-0.4-6,0.6-7.6,3.4c-0.5,0.8-0.7,1.7-0.8,2.6c-0.8,0-1.6,0.2-2.4,0.6
		c-3.8,2-4.9,5.7-3.4,9.2c-4.7,1.6-9.5,3-14.1,4.9c-4.5,1.9-7.1,8.2-5.1,12.7c0.7,1.5,1.8,2.8,3.1,3.8c0.2,0.2,0.5,0.3,0.8,0.5
		C333.8,87.4,333.7,87.4,333.7,87.3z M355,58.9c0.2,0.2,0.4,0.5,0.5,0.9l3.2,8c0.9,2.2-2,3-3.5,2.4c1.2,1.2,5,0.4,4-2.1l-3.2-8
		C355.8,59.4,355.4,59,355,58.9z M381.8,44.6c0.8,1,2,5.4,2.2,7.1l-1.9,0.5c-2.6-0.3-3.9-0.4-4.7-0.5c-0.2,0-0.7,0-1.2,0.1l0.2,0.5
		c0.6-0.3,1.3-0.3,1.6-0.3c0.8,0.1,2.2,0.2,4.7,0.5l1.9-0.5c-0.3-1.7-1.6-6.5-2.3-7.2C382.1,44.8,382,44.7,381.8,44.6z M372.1,48.7
		c0.1,0.1,0.1,0.1,0.2,0.2l1.4,4c-3.5,2.3-1.1,7.2,2.1,9c-2.9-2-4.9-6.5-1.6-8.6l-1.4-4C372.7,49,372.4,48.8,372.1,48.7z M363.7,53
		c-0.2-0.1-0.3-0.1-0.5-0.1c0.4,1.2,0.9,2.5,1.3,3.7c1,2.8,2,5.6,3,8.4c-0.3,2.6-3.1,3.5-5.1,2.5c2,1.5,5.3,0.7,5.6-2.1
		c-1-2.8-2-5.6-3-8.4C364.6,55.6,364.1,54.3,363.7,53z"/>
	<g class="st4">
		<g>
			<path class="st5" d="M336,81.4c0.1,0.1,0.1,0.2,0.2,0.2c0.1,0.1,0.1,0.1,0.2,0.2c0,0,0,0,0.1,0.1c0.1,0.1,0.2,0.1,0.2,0.2
				c0.1,0.1,0.2,0.1,0.3,0.2c1,0.6,2.2,0.7,3.3,0.2c1.8-0.8,2.7-2.9,1.9-4.7c-0.2-0.4-0.4-0.7-0.7-1c0.1,0.1,0.2,0.3,0.2,0.4
				c0.8,1.8-0.1,3.9-1.9,4.7c-1.1,0.5-2.3,0.3-3.3-0.2c-0.1-0.1-0.2-0.1-0.3-0.2C336.1,81.5,336.1,81.4,336,81.4c0-0.1,0-0.1,0-0.1
				c0,0-0.1-0.1-0.1-0.1C335.8,81.3,335.9,81.3,336,81.4C335.9,81.4,335.9,81.4,336,81.4z"/>
			<path class="st5" d="M379.6,63.5c-0.1,0-0.1-0.1-0.2-0.1c-0.1,0-0.1-0.1-0.2-0.1c-0.1-0.1-0.3-0.2-0.4-0.3
				c-0.1,0-0.1-0.1-0.2-0.1c0,0,0,0,0,0c-0.1,0.3-0.2,0.6-0.3,0.9c0,0.1-0.1,0.1-0.1,0.2c-0.1,0.3-0.3,0.5-0.5,0.8
				c-0.7,0.8-1.6,1.5-2.6,1.9c-0.2,0.1-0.4,0.2-0.7,0.2c-0.4,0.1-0.9,0.2-1.3,0.3c-0.3,0-0.5,0.1-0.8,0.1c-0.1,0-0.1,0-0.2,0
				c-0.2,0-0.4,0-0.6,0c-0.1,0-0.2,0-0.2,0c-0.2,0-0.4,0-0.5-0.1c-0.1,0-0.1,0-0.2,0c-0.2-0.1-0.5-0.1-0.7-0.2
				c-1.1,2.3-3.5,3.5-5.9,3.4c-0.4,0-0.8-0.1-1.2-0.2c-0.4-0.1-0.8-0.3-1.2-0.5l0,0l0,0c-0.1,0.2-0.1,0.3-0.2,0.5
				c-0.1,0.1-0.1,0.3-0.2,0.4c0,0,0,0,0,0c-0.2,0.3-0.4,0.6-0.7,0.8c-0.1,0.1-0.1,0.1-0.2,0.2c-0.2,0.2-0.5,0.4-0.8,0.5
				c0,0-0.1,0.1-0.1,0.1c-0.3,0.2-0.6,0.3-0.9,0.4c-0.1,0-0.2,0.1-0.3,0.1c-0.3,0.1-0.7,0.1-1,0.2c-0.1,0-0.1,0-0.2,0
				c-0.3,0-0.7,0-1,0c-0.1,0-0.2,0-0.3,0c-0.3-0.1-0.7-0.1-1-0.2c0,0,0,0,0,0c-0.3-0.1-0.7-0.3-1-0.5c0,0-0.1,0-0.1,0
				c-0.2-0.2-0.4-0.4-0.6-0.6c0.1,0.2,0.2,0.3,0.3,0.4c0.2,0.3,0.5,0.5,0.8,0.7c0,0,0.1,0,0.1,0c0.3,0.2,0.6,0.4,1,0.5c0,0,0,0,0,0
				c0.3,0.1,0.7,0.2,1,0.2c0.1,0,0.2,0,0.3,0c0.3,0,0.6,0,1,0c0.1,0,0.1,0,0.2,0c0.3,0,0.7-0.1,1-0.2c0.1,0,0.2,0,0.3-0.1
				c0.3-0.1,0.6-0.2,0.9-0.4c0,0,0.1-0.1,0.1-0.1c0.3-0.2,0.5-0.3,0.8-0.5c0.1-0.1,0.1-0.1,0.2-0.2c0.3-0.2,0.5-0.5,0.7-0.8
				c0,0,0,0,0,0c0.1-0.1,0.1-0.3,0.2-0.4c0.1-0.2,0.2-0.3,0.2-0.5l0,0c0,0,0,0,0,0c0.4,0.2,0.8,0.3,1.2,0.5c0.4,0.1,0.8,0.2,1.2,0.2
				c2.4,0.2,4.9-1,5.9-3.4c0.2,0.1,0.5,0.2,0.7,0.2c0.1,0,0.1,0,0.2,0c0.2,0,0.3,0.1,0.5,0.1c0.1,0,0.2,0,0.2,0c0.2,0,0.4,0,0.6,0
				c0.1,0,0.1,0,0.2,0c0.3,0,0.5,0,0.8-0.1c0.2,0,0.4-0.1,0.6-0.1l3.7-1.9c0.1-0.1,0.2-0.2,0.3-0.4c0.2-0.2,0.3-0.5,0.5-0.8
				c0-0.1,0.1-0.1,0.1-0.2c0.1-0.3,0.2-0.6,0.3-0.9c0,0,0,0,0,0c0.1,0,0.1,0.1,0.2,0.1c0.1,0.1,0.3,0.2,0.4,0.3
				c0.1,0,0.1,0.1,0.2,0.1c0.1,0,0.1,0.1,0.2,0.1c0.1,0,0.1,0.1,0.2,0.1c0.1,0,0.2,0.1,0.2,0.1l0.5-0.3c-0.4-0.1-0.8-0.2-1.2-0.4
				C379.7,63.6,379.6,63.5,379.6,63.5z"/>
			<path class="st5" d="M374.2,48l1.1,3.5c0.1,0,0.1-0.1,0.2-0.1l-0.9-2.8c0.4-4.3,5.8-4.8,6.9-4.1c-0.1-0.2-0.2-0.4-0.3-0.5
				C380.4,43.2,374.6,43.5,374.2,48z"/>
			<path class="st5" d="M374.4,58.2c0.1,0.1,0.2,0.2,0.2,0.3c-0.7-1.1-1.3-3.4,0.5-4.2c0,0,0,0,0.1,0c0.5-0.2,1.1-0.4,1.6-0.5
				c0.1,0,0.2,0,0.3,0c1.5,0.2,3.7,0.4,5.2,0.6c1.9-0.3,3.7-0.8,5.6-1.1c1.3-0.2,2.6,0,3.5,0.9c-0.8-1.3-2.3-1.7-3.9-1.5
				c-1.9,0.3-3.7,0.7-5.6,1.1c-1.5-0.2-3.7-0.4-5.2-0.6c-0.1,0-0.2,0-0.3,0c-0.5,0.1-1.1,0.3-1.6,0.5c0,0,0,0-0.1,0
				C372.8,54.6,373.7,57.2,374.4,58.2z"/>
			<path class="st5" d="M373.2,59.5c0.6,0.9,1.4,1.6,2.2,2.2c0-0.1,0-0.2,0-0.3C374.6,60.9,373.8,60.2,373.2,59.5z"/>
			<path class="st5" d="M382.3,66.5l4.8,1.5c-0.2-0.2-0.4-0.4-0.7-0.6l-4.6-1.4l-7.5,9l-0.3,1.4L382.3,66.5z"/>
			<path class="st5" d="M420.2,41.4L406,45.3c-0.2,0.1-0.5,0.3-0.6,0.5l1.6,2.9c0.1,0.2,0.2,0.4,0.4,0.5c0,0.1,0.1,0.1,0.1,0.2
				c0,0-0.1-0.1-0.1-0.1l-1.6-2.9c0.1-0.2,0.4-0.4,0.6-0.5l14.2-3.9l-2.8-3.7c-0.1-0.2-0.3-0.4-0.4-0.5L420.2,41.4z"/>
			<path class="st5" d="M395.4,57.8l0-0.2l-0.8-3.4l0-0.2l0,0l-0.1-0.2c-0.1-0.2-0.2-0.4-0.3-0.6c0,0,0-0.1-0.1-0.1
				c0,0,0-0.1-0.1-0.1c-0.1-0.1-0.2-0.3-0.3-0.4c0,0,0,0,0,0c-0.1-0.1-0.1-0.1-0.2-0.2c-0.1-0.1-0.1-0.2-0.2-0.2
				c0.1,0.1,0.2,0.2,0.2,0.4c0,0,0.1,0.1,0.1,0.1c0,0,0,0.1,0.1,0.1c0.1,0.2,0.2,0.4,0.3,0.6l0.1,0.2l0,0l0,0.2l0.8,3.4l0.2,0.8l0,0
				v0C395.2,57.9,395.3,57.9,395.4,57.8z"/>
			<path class="st5" d="M398.8,39.4c5.2-2.1,11.1-1.2,15.3-0.8c0.2,0.3,0.5,0.6,0.7,0.9c0,0,0,0,0,0c0,0,0,0,0,0l0,0l0,0h0
				c-0.2-0.2-0.3-0.4-0.5-0.6c0,0,0,0,0,0c-0.2-0.3-0.4-0.6-0.7-0.9c-4.2-0.4-10.1-1.2-15.3,0.8c-4.4,1.8-4.8,4.5-4.2,9.3
				c-1.3,0.7-2.6,1.5-3.9,2.1c0.4,0,0.7,0.1,1.1,0.2c1.1-0.6,2.2-1.2,3.3-1.8C394,43.9,394.4,41.1,398.8,39.4z"/>
			<path class="st5" d="M405.5,51.7c-0.1-0.1-0.2-0.2-0.3-0.2c-0.1-0.1-0.2-0.2-0.3-0.3c0,0,0-0.1-0.1-0.1c0,0,0.1,0.1,0.1,0.1
				c0,0.1,0.1,0.1,0.2,0.2C405.2,51.6,405.3,51.7,405.5,51.7c0,0.1,0.1,0.2,0.2,0.3c0.1,0.1,0.2,0.2,0.3,0.2
				c0.1,0.1,0.2,0.2,0.3,0.2c0.9,0.7,2,1,3.2,0.6l7.3-2.1l-0.1-0.7l-7.7,2.2c-1.2,0.3-2.3,0-3.2-0.6
				C405.7,51.9,405.6,51.8,405.5,51.7z"/>
			<path class="st5" d="M357.5,85.5L357.5,85.5c-0.3-0.4-0.5-0.7-0.8-1C357,84.8,357.2,85.1,357.5,85.5z"/>
			<path class="st5" d="M358.4,80.9l15.9-8.3l0.2-0.9L358,80.3c0.7,1.4,1.6,2.7,2.6,4C359.8,83.2,359,82.1,358.4,80.9z"/>
			<path class="st5" d="M383.7,91.4c0-0.3-0.1-0.6-0.1-0.8l-4.7,4l-1.5,2.2L383.7,91.4z"/>
			<path class="st5" d="M361.1,100.8l-0.6-14c1.4,0.7,2.8,1.5,4.1,2.2c-0.2-0.2-0.4-0.5-0.7-0.7c-1.3-0.7-2.6-1.4-3.9-2.1l0.6,14.5
				L361.1,100.8z"/>
			<path class="st5" d="M333.3,82.7c-0.2-0.3-0.3-0.5-0.5-0.8c-1.4-3.3,1-7.5,3.4-8.6c4.9-2.1,9.9-3.4,14.8-5.2l-0.4-0.6
				c-5,1.8-9.9,3.1-14.8,5.2c-2.4,1-4.9,5.2-3.4,8.6C332.6,81.8,332.9,82.3,333.3,82.7z"/>
			<path class="st5" d="M420,47l-0.4,0.1l0.4,4.5l0.1,1.5l-1.1,1.1c-1.4,1.3-2.8,2.7-4.2,4c-2.9,2.5-6.5,5-10.5,5
				c-2.5,0-4.7-1-6.5-2.6c-0.3,0.1-0.6,0.3-0.9,0.4l1,4.1l0,0.2c0.6,5.7-7,17.8-10,23.6l6.2,25.8l-37.5-11.2l0,0.4l38,11.3
				l-6.2-25.8c3-5.8,10.6-17.9,10-23.6l0-0.2l-1-4.1c0.3-0.1,0.6-0.3,0.9-0.4c1.8,1.6,4,2.6,6.5,2.6c4,0,7.6-2.5,10.5-5
				c1.5-1.3,2.8-2.6,4.2-4l1.1-1.1l-0.1-1.5L420,47z"/>
			<path class="st5" d="M364.8,50.8c1.2,4.1,3.1,8.7,4.5,12.7c0.1,0.2,0.2,0.3,0.4,0.4c-1.4-4-3.2-8.5-4.4-12.5c0-2.6,4.9-4,6.7-2.8
				l-0.1-0.2C370.6,46.6,364.9,48.1,364.8,50.8z"/>
			<path class="st5" d="M354.8,81.3l-12.3,6.4c-3,1.6-7.1,0.7-9.8-1.2c-0.7-0.5-1.3-1-1.8-1.7c0.6,0.9,1.4,1.6,2.3,2.2
				c2.7,1.9,6.8,2.8,9.8,1.2l12.1-6.3C355,81.7,354.9,81.5,354.8,81.3z"/>
			<path class="st5" d="M357.1,57c1.3,3,2.5,6.1,3.8,9.1c0.1,0.1,0.2,0.2,0.3,0.3c-1.2-3-2.5-5.9-3.7-8.9c-1.2-3,1.4-6,5.3-4.9
				c-0.1-0.2-0.1-0.3-0.2-0.5C358.7,50.8,355.9,53.9,357.1,57z"/>
			<path class="st5" d="M353.3,58.7c0.6-0.3,1.2-0.3,1.6,0.1c-0.5-0.9-1.2-1.1-2.1-0.6c-2.3,1.2-3.4,3.6-1.1,6.7l2.3,3.9
				c0.1,0.2,0.2,0.4,0.4,0.5l-2.2-3.8C349.9,62.4,351,60,353.3,58.7z"/>
			<path class="st5" d="M387.1,48.6l0.3-0.1c-0.6-2.2-1.5-4.6-2.5-5.7C385.8,44.1,386.6,46.5,387.1,48.6z"/>
			<path class="st5" d="M383.9,64.7c0.1,0.1,0.2,0.2,0.4,0.4c-0.9-2.7,0.7-3.5,1.7-5.5c-0.4,0.3-0.8,0.5-1.2,0.7
				C383.9,61.5,383.1,62.5,383.9,64.7z"/>
		</g>
		<g>
			<path class="st5" d="M336,81.4c0.1,0.1,0.1,0.2,0.2,0.2c0.1,0.1,0.1,0.1,0.2,0.2c0,0,0,0,0.1,0.1c0.1,0.1,0.2,0.1,0.2,0.2
				c0.1,0.1,0.2,0.1,0.3,0.2c1,0.6,2.2,0.7,3.3,0.2c1.8-0.8,2.7-2.9,1.9-4.7c-0.2-0.4-0.4-0.7-0.7-1c0.1,0.1,0.2,0.3,0.2,0.4
				c0.8,1.8-0.1,3.9-1.9,4.7c-1.1,0.5-2.3,0.3-3.3-0.2c-0.1-0.1-0.2-0.1-0.3-0.2C336.1,81.5,336.1,81.4,336,81.4c0-0.1,0-0.1,0-0.1
				c0,0-0.1-0.1-0.1-0.1C335.8,81.3,335.9,81.3,336,81.4C335.9,81.4,335.9,81.4,336,81.4z"/>
			<path class="st5" d="M379.6,63.5c-0.1,0-0.1-0.1-0.2-0.1c-0.1,0-0.1-0.1-0.2-0.1c-0.1-0.1-0.3-0.2-0.4-0.3
				c-0.1,0-0.1-0.1-0.2-0.1c0,0,0,0,0,0c-0.1,0.3-0.2,0.6-0.3,0.9c0,0.1-0.1,0.1-0.1,0.2c-0.1,0.3-0.3,0.5-0.5,0.8
				c-0.7,0.8-1.6,1.5-2.6,1.9c-0.2,0.1-0.4,0.2-0.7,0.2c-0.4,0.1-0.9,0.2-1.3,0.3c-0.3,0-0.5,0.1-0.8,0.1c-0.1,0-0.1,0-0.2,0
				c-0.2,0-0.4,0-0.6,0c-0.1,0-0.2,0-0.2,0c-0.2,0-0.4,0-0.5-0.1c-0.1,0-0.1,0-0.2,0c-0.2-0.1-0.5-0.1-0.7-0.2
				c-1.1,2.3-3.5,3.5-5.9,3.4c-0.4,0-0.8-0.1-1.2-0.2c-0.4-0.1-0.8-0.3-1.2-0.5l0,0l0,0c-0.1,0.2-0.1,0.3-0.2,0.5
				c-0.1,0.1-0.1,0.3-0.2,0.4c0,0,0,0,0,0c-0.2,0.3-0.4,0.6-0.7,0.8c-0.1,0.1-0.1,0.1-0.2,0.2c-0.2,0.2-0.5,0.4-0.8,0.5
				c0,0-0.1,0.1-0.1,0.1c-0.3,0.2-0.6,0.3-0.9,0.4c-0.1,0-0.2,0.1-0.3,0.1c-0.3,0.1-0.7,0.1-1,0.2c-0.1,0-0.1,0-0.2,0
				c-0.3,0-0.7,0-1,0c-0.1,0-0.2,0-0.3,0c-0.3-0.1-0.7-0.1-1-0.2c0,0,0,0,0,0c-0.3-0.1-0.7-0.3-1-0.5c0,0-0.1,0-0.1,0
				c-0.2-0.2-0.4-0.4-0.6-0.6c0.1,0.2,0.2,0.3,0.3,0.4c0.2,0.3,0.5,0.5,0.8,0.7c0,0,0.1,0,0.1,0c0.3,0.2,0.6,0.4,1,0.5c0,0,0,0,0,0
				c0.3,0.1,0.7,0.2,1,0.2c0.1,0,0.2,0,0.3,0c0.3,0,0.6,0,1,0c0.1,0,0.1,0,0.2,0c0.3,0,0.7-0.1,1-0.2c0.1,0,0.2,0,0.3-0.1
				c0.3-0.1,0.6-0.2,0.9-0.4c0,0,0.1-0.1,0.1-0.1c0.3-0.2,0.5-0.3,0.8-0.5c0.1-0.1,0.1-0.1,0.2-0.2c0.3-0.2,0.5-0.5,0.7-0.8
				c0,0,0,0,0,0c0.1-0.1,0.1-0.3,0.2-0.4c0.1-0.2,0.2-0.3,0.2-0.5l0,0c0,0,0,0,0,0c0.4,0.2,0.8,0.3,1.2,0.5c0.4,0.1,0.8,0.2,1.2,0.2
				c2.4,0.2,4.9-1,5.9-3.4c0.2,0.1,0.5,0.2,0.7,0.2c0.1,0,0.1,0,0.2,0c0.2,0,0.3,0.1,0.5,0.1c0.1,0,0.2,0,0.2,0c0.2,0,0.4,0,0.6,0
				c0.1,0,0.1,0,0.2,0c0.3,0,0.5,0,0.8-0.1c0.2,0,0.4-0.1,0.6-0.1l3.7-1.9c0.1-0.1,0.2-0.2,0.3-0.4c0.2-0.2,0.3-0.5,0.5-0.8
				c0-0.1,0.1-0.1,0.1-0.2c0.1-0.3,0.2-0.6,0.3-0.9c0,0,0,0,0,0c0.1,0,0.1,0.1,0.2,0.1c0.1,0.1,0.3,0.2,0.4,0.3
				c0.1,0,0.1,0.1,0.2,0.1c0.1,0,0.1,0.1,0.2,0.1c0.1,0,0.1,0.1,0.2,0.1c0.1,0,0.2,0.1,0.2,0.1l0.5-0.3c-0.4-0.1-0.8-0.2-1.2-0.4
				C379.7,63.6,379.6,63.5,379.6,63.5z"/>
			<path class="st5" d="M374.2,48l1.1,3.5c0.1,0,0.1-0.1,0.2-0.1l-0.9-2.8c0.4-4.3,5.8-4.8,6.9-4.1c-0.1-0.2-0.2-0.4-0.3-0.5
				C380.4,43.2,374.6,43.5,374.2,48z"/>
			<path class="st5" d="M374.4,58.2c0.1,0.1,0.2,0.2,0.2,0.3c-0.7-1.1-1.3-3.4,0.5-4.2c0,0,0,0,0.1,0c0.5-0.2,1.1-0.4,1.6-0.5
				c0.1,0,0.2,0,0.3,0c1.5,0.2,3.7,0.4,5.2,0.6c1.9-0.3,3.7-0.8,5.6-1.1c1.3-0.2,2.6,0,3.5,0.9c-0.8-1.3-2.3-1.7-3.9-1.5
				c-1.9,0.3-3.7,0.7-5.6,1.1c-1.5-0.2-3.7-0.4-5.2-0.6c-0.1,0-0.2,0-0.3,0c-0.5,0.1-1.1,0.3-1.6,0.5c0,0,0,0-0.1,0
				C372.8,54.6,373.7,57.2,374.4,58.2z"/>
			<path class="st5" d="M373.2,59.5c0.6,0.9,1.4,1.6,2.2,2.2c0-0.1,0-0.2,0-0.3C374.6,60.9,373.8,60.2,373.2,59.5z"/>
			<path class="st5" d="M382.3,66.5l4.8,1.5c-0.2-0.2-0.4-0.4-0.7-0.6l-4.6-1.4l-7.5,9l-0.3,1.4L382.3,66.5z"/>
			<path class="st5" d="M420.2,41.4L406,45.3c-0.2,0.1-0.5,0.3-0.6,0.5l1.6,2.9c0.1,0.2,0.2,0.4,0.4,0.5c0,0.1,0.1,0.1,0.1,0.2
				c0,0-0.1-0.1-0.1-0.1l-1.6-2.9c0.1-0.2,0.4-0.4,0.6-0.5l14.2-3.9l-2.8-3.7c-0.1-0.2-0.3-0.4-0.4-0.5L420.2,41.4z"/>
			<path class="st5" d="M395.4,57.8l0-0.2l-0.8-3.4l0-0.2l0,0l-0.1-0.2c-0.1-0.2-0.2-0.4-0.3-0.6c0,0,0-0.1-0.1-0.1
				c0,0,0-0.1-0.1-0.1c-0.1-0.1-0.2-0.3-0.3-0.4c0,0,0,0,0,0c-0.1-0.1-0.1-0.1-0.2-0.2c-0.1-0.1-0.1-0.2-0.2-0.2
				c0.1,0.1,0.2,0.2,0.2,0.4c0,0,0.1,0.1,0.1,0.1c0,0,0,0.1,0.1,0.1c0.1,0.2,0.2,0.4,0.3,0.6l0.1,0.2l0,0l0,0.2l0.8,3.4l0.2,0.8l0,0
				v0C395.2,57.9,395.3,57.9,395.4,57.8z"/>
			<path class="st5" d="M398.8,39.4c5.2-2.1,11.1-1.2,15.3-0.8c0.2,0.3,0.5,0.6,0.7,0.9c0,0,0,0,0,0c0,0,0,0,0,0l0,0l0,0h0
				c-0.2-0.2-0.3-0.4-0.5-0.6c0,0,0,0,0,0c-0.2-0.3-0.4-0.6-0.7-0.9c-4.2-0.4-10.1-1.2-15.3,0.8c-4.4,1.8-4.8,4.5-4.2,9.3
				c-1.3,0.7-2.6,1.5-3.9,2.1c0.4,0,0.7,0.1,1.1,0.2c1.1-0.6,2.2-1.2,3.3-1.8C394,43.9,394.4,41.1,398.8,39.4z"/>
			<path class="st5" d="M405.5,51.7c-0.1-0.1-0.2-0.2-0.3-0.2c-0.1-0.1-0.2-0.2-0.3-0.3c0,0,0-0.1-0.1-0.1c0,0,0.1,0.1,0.1,0.1
				c0,0.1,0.1,0.1,0.2,0.2C405.2,51.6,405.3,51.7,405.5,51.7c0,0.1,0.1,0.2,0.2,0.3c0.1,0.1,0.2,0.2,0.3,0.2
				c0.1,0.1,0.2,0.2,0.3,0.2c0.9,0.7,2,1,3.2,0.6l7.3-2.1l-0.1-0.7l-7.7,2.2c-1.2,0.3-2.3,0-3.2-0.6
				C405.7,51.9,405.6,51.8,405.5,51.7z"/>
			<path class="st5" d="M357.5,85.5L357.5,85.5c-0.3-0.4-0.5-0.7-0.8-1C357,84.8,357.2,85.1,357.5,85.5z"/>
			<path class="st5" d="M358.4,80.9l15.9-8.3l0.2-0.9L358,80.3c0.7,1.4,1.6,2.7,2.6,4C359.8,83.2,359,82.1,358.4,80.9z"/>
			<path class="st5" d="M383.7,91.4c0-0.3-0.1-0.6-0.1-0.8l-4.7,4l-1.5,2.2L383.7,91.4z"/>
			<path class="st5" d="M361.1,100.8l-0.6-14c1.4,0.7,2.8,1.5,4.1,2.2c-0.2-0.2-0.4-0.5-0.7-0.7c-1.3-0.7-2.6-1.4-3.9-2.1l0.6,14.5
				L361.1,100.8z"/>
			<path class="st5" d="M333.3,82.7c-0.2-0.3-0.3-0.5-0.5-0.8c-1.4-3.3,1-7.5,3.4-8.6c4.9-2.1,9.9-3.4,14.8-5.2l-0.4-0.6
				c-5,1.8-9.9,3.1-14.8,5.2c-2.4,1-4.9,5.2-3.4,8.6C332.6,81.8,332.9,82.3,333.3,82.7z"/>
			<path class="st5" d="M420,47l-0.4,0.1l0.4,4.5l0.1,1.5l-1.1,1.1c-1.4,1.3-2.8,2.7-4.2,4c-2.9,2.5-6.5,5-10.5,5
				c-2.5,0-4.7-1-6.5-2.6c-0.3,0.1-0.6,0.3-0.9,0.4l1,4.1l0,0.2c0.6,5.7-7,17.8-10,23.6l6.2,25.8l-37.5-11.2l0,0.4l38,11.3
				l-6.2-25.8c3-5.8,10.6-17.9,10-23.6l0-0.2l-1-4.1c0.3-0.1,0.6-0.3,0.9-0.4c1.8,1.6,4,2.6,6.5,2.6c4,0,7.6-2.5,10.5-5
				c1.5-1.3,2.8-2.6,4.2-4l1.1-1.1l-0.1-1.5L420,47z"/>
			<path class="st5" d="M364.8,50.8c1.2,4.1,3.1,8.7,4.5,12.7c0.1,0.2,0.2,0.3,0.4,0.4c-1.4-4-3.2-8.5-4.4-12.5c0-2.6,4.9-4,6.7-2.8
				l-0.1-0.2C370.6,46.6,364.9,48.1,364.8,50.8z"/>
			<path class="st5" d="M354.8,81.3l-12.3,6.4c-3,1.6-7.1,0.7-9.8-1.2c-0.7-0.5-1.3-1-1.8-1.7c0.6,0.9,1.4,1.6,2.3,2.2
				c2.7,1.9,6.8,2.8,9.8,1.2l12.1-6.3C355,81.7,354.9,81.5,354.8,81.3z"/>
			<path class="st5" d="M357.1,57c1.3,3,2.5,6.1,3.8,9.1c0.1,0.1,0.2,0.2,0.3,0.3c-1.2-3-2.5-5.9-3.7-8.9c-1.2-3,1.4-6,5.3-4.9
				c-0.1-0.2-0.1-0.3-0.2-0.5C358.7,50.8,355.9,53.9,357.1,57z"/>
			<path class="st5" d="M353.3,58.7c0.6-0.3,1.2-0.3,1.6,0.1c-0.5-0.9-1.2-1.1-2.1-0.6c-2.3,1.2-3.4,3.6-1.1,6.7l2.3,3.9
				c0.1,0.2,0.2,0.4,0.4,0.5l-2.2-3.8C349.9,62.4,351,60,353.3,58.7z"/>
			<path class="st5" d="M387.1,48.6l0.3-0.1c-0.6-2.2-1.5-4.6-2.5-5.7C385.8,44.1,386.6,46.5,387.1,48.6z"/>
			<path class="st5" d="M383.9,64.7c0.1,0.1,0.2,0.2,0.4,0.4c-0.9-2.7,0.7-3.5,1.7-5.5c-0.4,0.3-0.8,0.5-1.2,0.7
				C383.9,61.5,383.1,62.5,383.9,64.7z"/>
		</g>
	</g>
</g>
</svg>
