<svg xmlns="http://www.w3.org/2000/svg" viewBox="0 0 300 95.74"><defs><style>.cls-1{fill:#fff;}.cls-2{fill:#d93f3d;}</style></defs><title>logo</title><g id="Layer_2" data-name="Layer 2"><g id="Graphics"><polygon class="cls-1" points="299.97 48.6 195.65 0 185.07 8.81 299.97 48.6"/><path class="cls-1" d="M233.77,94.48H223.25V49.59l-7.42-1.74V94.48h-15V74.75l4.45.41V57.62a45.37,45.37,0,0,1,1.9-11.79l-4.59-1.08V25.19l31.15,10.19Z"/><path class="cls-1" d="M252.43,94.48H242V54l-4-.93V36.76l14.42,4.72Z"/><path class="cls-1" d="M276.2,94.48h-8c-.48-3.67-.72-5.52-1.21-9.25l-.76,0c-1.06,2.89-2.28,8.61-6.07,9.3H256.5V79.11l4,.39c1.49.15,3.23-1.1,5.21-3.58V61.49q0-1.94-1.17-2.22l-7.28-1.71V43l14.63,4.79A16.71,16.71,0,0,1,276.2,60Z"/><path class="cls-1" d="M300,94.48h-8c-.48-3.07-.72-4.62-1.21-7.76l-.76,0c-1.09,3.14-2.64,6.83-6.07,7.8H280.3v-13l4,.39c1.49.15,3.23-.89,5.21-2.93V66.77q0-1.63-1.17-1.91L281,63.16V50.84l14.62,4.78A13.18,13.18,0,0,1,300,66Z"/><polygon class="cls-2" points="129.02 17.41 0 51.12 129.02 29.73 129.02 17.41"/><polygon class="cls-2" points="155.11 10.59 155.11 25.41 185.07 20.45 195.65 0 155.11 10.59"/><path class="cls-1" d="M10.53,78.16l-7.72.54V66.11L0,66.45V55.55L10.53,53.8Z"/><path class="cls-1" d="M25.46,94l-8.65.06V64.42l-3.14.38V53.28l11.78-2Z"/><path class="cls-1" d="M42.39,93.89l-9.76.06V62.5l-3.53.43V50.71l13.29-2.21Z"/><path class="cls-1" d="M83.28,84.78l-9,11L57.31,72V93.79l-10.79.07V79.92a16.34,16.34,0,0,1,1.41-6.71c.58-1.18,2.08-3.76,4.54-7.8l-7-9.61L53,44.87,68.06,65V44.24l12.58-2.09V54.08a22.55,22.55,0,0,1-2.09,9.42Q77.28,65.77,76.07,68l-2.4,4.36Z"/><path class="cls-1" d="M126.81,51.1l-6.5.79V93.38l-15.69.1V53.78L85.7,56.07V41.31l41.11-6.83Z"/><path class="cls-1" d="M185.08,42.57a44.94,44.94,0,0,1-6.37,23.29L160.81,95.61,144.51,84.51l22.14-38.24-33.79,4.09V9.5L151.28,5.6V30.42l33.8-5.62Z"/></g></g></svg>