<svg xmlns="http://www.w3.org/2000/svg" viewBox="0 0 260.05 260"><defs><style>.cls-1{fill:#fff;}.cls-2{fill:#d93f3d;}</style></defs><title>stamp</title><g id="Layer_2" data-name="Layer 2"><g id="Graphics"><path class="cls-1" d="M129.95,257.5A127.69,127.69,0,1,1,163,253.13,127.62,127.62,0,0,1,129.95,257.5Z"/><path class="cls-2" d="M130.1,5A125.07,125.07,0,1,1,97.68,9.29,125,125,0,0,1,130.1,5m0-5V0A130,130,0,1,0,255.57,96.36,130.36,130.36,0,0,0,130.11,0Z"/><path class="cls-1" d="M129.95,250.32a120.5,120.5,0,1,1,31.21-4.13A120.43,120.43,0,0,1,129.95,250.32Z"/><path class="cls-2" d="M130.1,10.68a119.39,119.39,0,1,1-30.95,4.09,119.33,119.33,0,0,1,30.95-4.09m0-2v0A121.31,121.31,0,1,0,247.18,98.61,121.66,121.66,0,0,0,130.1,8.68Z"/><circle class="cls-2" cx="130.02" cy="130" r="84.35" transform="translate(-29.22 38.08) rotate(-15)"/><path class="cls-2" d="M26.75,164l8.06-3.14a7.1,7.1,0,0,1,3.8-.5,5.83,5.83,0,0,1,3.09,1.56,9,9,0,0,1,2.13,3.31,17,17,0,0,1,1.14,6l-3,.29a16,16,0,0,0-.37-3.54A4.54,4.54,0,0,1,41,169a4,4,0,0,1-.91.86l-8.71,5.89-1.44-3.71L39,166.14a6.92,6.92,0,0,0,1.22-1,3.11,3.11,0,0,0-1.7-1,3.84,3.84,0,0,0-2.12.27l-8.24,3.21Z"/><path class="cls-2" d="M28.25,157.75l.32,1.28-3,.75-1.28-5.11L38.94,151l1,3.83Z"/><path class="cls-2" d="M30.4,140.29l4.39-4,1.77-.23,1.54,11.83-3.06.4-.89-6.8L23.31,151.1l-.57-4.35L27.23,143,22,141.4,21.47,137Z"/><path class="cls-2" d="M33.59,127.54a3.38,3.38,0,0,0-.89-2.47,3.7,3.7,0,0,0-2.59-.95l-5.42-.19-.3,8.77-3.07-.11.44-12.72,8.4.29a6.91,6.91,0,0,1,3.52,1,5.69,5.69,0,0,1,2.18,2.57,9.55,9.55,0,0,1,.73,3.92Zm-2.47,5.27a4.9,4.9,0,0,1-3.2-1l.11-3.16a13.17,13.17,0,0,0,2.81.34l10.93.38-.13,3.81Z"/><path class="cls-2" d="M29.1,114.45a7.21,7.21,0,0,1-1.79-.91,4.53,4.53,0,0,1-1.22-1.2.68.68,0,0,1-.1-.2h-.06a10.58,10.58,0,0,0,0,1.2,11,11,0,0,0,.14,1.24l-3,.23a20.35,20.35,0,0,1-.13-3.53,22,22,0,0,1,.44-3.68,7.16,7.16,0,0,1,2.81-4.75,7,7,0,0,1,5.43-.69L40,103.94l-1.37,6.46-3-.64.55-2.6-5.87-1.23a3.92,3.92,0,0,0-2.42.11,2,2,0,0,0-1.18,1.51,1.94,1.94,0,0,0,.47,1.8,5,5,0,0,0,2.22,1.26L38,113.34l-.81,3.82Z"/><path class="cls-2" d="M35,89.66a2.25,2.25,0,0,0-1.8-.08A2.55,2.55,0,0,0,32,91.05l-2.3,5.79-2.85-1.14,2.41-6.06a7.59,7.59,0,0,1,1.82-2.81,4.59,4.59,0,0,1,2.52-1.23,5.91,5.91,0,0,1,3,.45l8.89,3.54-1.46,3.67Zm1,9.76a4.93,4.93,0,0,1-2.68-2l1.16-2.92a13.9,13.9,0,0,0,2.53,1.27l5.2,2.07-1.41,3.54Z"/><path class="cls-2" d="M45.86,65.28l7.57,11.2-2.35,3.46L43.92,69.09l-4.55,6.69-6-4.11,2.22-3.27,3.51,2.39,4.71-6.93Z"/><path class="cls-2" d="M54.85,51.48l6.32,5.9a7.09,7.09,0,0,1,2.09,3.21A5.83,5.83,0,0,1,63.2,64a9,9,0,0,1-2.06,3.35A17,17,0,0,1,56.24,71l-1.55-2.57a15.87,15.87,0,0,0,3-1.87,4.57,4.57,0,0,1-1.26-.1A4,4,0,0,1,55.29,66l-9.09-5.3,2.71-2.91,9.29,5.65a6.83,6.83,0,0,0,1.45.66,3.11,3.11,0,0,0,.12-1.94,3.84,3.84,0,0,0-1.16-1.79l-6.47-6Z"/><path class="cls-2" d="M75.77,50l1.82,2.32-10.21,8-1.9-2.43,5.72-4.49-4.12-5.25a2.23,2.23,0,0,0-1.52-1,2.56,2.56,0,0,0-1.77.67l-3.2,2.51L58.69,48l3.42-2.68a7.57,7.57,0,0,1,3-1.51,4.64,4.64,0,0,1,2.8.2,5.87,5.87,0,0,1,2.41,1.91l3.92,5Z"/><path class="cls-2" d="M88.87,32.12l1,13.48-3.75,1.84-.85-13L78,38l-3.21-6.57,3.55-1.74,1.86,3.81,7.53-3.68Z"/><path class="cls-2" d="M92.93,31.26l-1.25.44-1-2.89,5-1.76,5,14.22L97,42.59Z"/><path class="cls-2" d="M103.06,31.54a7.17,7.17,0,0,1,.09-2,4.51,4.51,0,0,1,.59-1.61.62.62,0,0,1,.14-.17l0-.06a10.05,10.05,0,0,0-1.09.51,11.16,11.16,0,0,0-1.07.64l-1.43-2.63a20.25,20.25,0,0,1,3.17-1.57A21.94,21.94,0,0,1,107,23.55a7.16,7.16,0,0,1,5.48.62,7,7,0,0,1,2.86,4.67l1.81,8.35-6.46,1.4-.65-3,2.6-.56-1.28-5.86A3.93,3.93,0,0,0,110.23,27a2,2,0,0,0-1.86-.46,1.94,1.94,0,0,0-1.45,1.16,5,5,0,0,0-.24,2.54l1,9-3.81.83Z"/><path class="cls-2" d="M138,23.05a5.61,5.61,0,0,1,1.41,4.31l-.24,9.37-3.94-.1.22-9.7a2.58,2.58,0,0,0-.46-1.76,1.94,1.94,0,0,0-1.52-.61l-2,0a11.18,11.18,0,0,0-.33,1.51A12.26,12.26,0,0,0,131,27.6l-.11,4.31a5.78,5.78,0,0,1-.61,2.59,3.78,3.78,0,0,1-1.62,1.61,5,5,0,0,1-2.48.51,11.51,11.51,0,0,1-1.91-.23l.08-3,.83,0q1.83,0,1.87-1.89l.09-3.66a8.22,8.22,0,0,1,.27-1.8,5.3,5.3,0,0,1,.68-1.63l-2.35-.06.08-3.07,7.67.2A6.31,6.31,0,0,1,138,23.05Z"/><path class="cls-2" d="M144.36,25.47l-1.31-.2.47-3,5.21.81L146.42,38l-3.91-.61Z"/><path class="cls-2" d="M157.52,30.28a2,2,0,0,0-.15-1.62,2.33,2.33,0,0,0-1.45-.93l-4.39-1.18.79-3L157,24.84a7.2,7.2,0,0,1,2.88,1.43,4.57,4.57,0,0,1,1.48,2.29,5.58,5.58,0,0,1-.06,2.94l-2.53,9.43-3.82-1Z"/><path class="cls-2" d="M167.06,31.22l-2.2-.86L166,27.5l5.88,2.3-3.13,8L165,36.38Z"/><path class="cls-2" d="M174.67,43.62a13.41,13.41,0,0,0,1.64,1.82,10.56,10.56,0,0,0,1.84,1.4A7.27,7.27,0,0,0,182.48,48a4.05,4.05,0,0,0,3.17-2.22l3.95-6.72L192.89,41l-4.17,7.1A6.37,6.37,0,0,1,185.58,51a7.72,7.72,0,0,1-4.23.39,13.67,13.67,0,0,1-4.62-1.76,20,20,0,0,1-3.49-2.64,19.74,19.74,0,0,1-2.93-3.43l6.88-11.71,3.29,1.93Zm4-.57a13.29,13.29,0,0,0,1.09-1.6l3.54-6,3.3,1.94-3.12,5.32A9.31,9.31,0,0,1,182,44.59a4.35,4.35,0,0,1-1.59,1.07L177.68,44A4.53,4.53,0,0,0,178.69,43Z"/><path class="cls-2" d="M196.15,47.79l-1.83-1.51,2-2.37,4.87,4-5.48,6.64-3-2.52Z"/><path class="cls-2" d="M217.58,65.44l-2.36,2-1.7-2-9.23,7.7-2.52-3,9.23-7.7-4.1-4.91,2.36-2Z"/><path class="cls-2" d="M217.4,70.8l-.72-1.11L219.25,68l2.88,4.42L209.5,80.68l-2.16-3.31Z"/><path class="cls-2" d="M219.25,92.79l-2.63,1.32-5.8-11.61,2.76-1.38,3.25,6.51,6-3a2.23,2.23,0,0,0,1.26-1.3,2.55,2.55,0,0,0-.31-1.87l-1.82-3.64,2.75-1.37,1.94,3.89a7.59,7.59,0,0,1,.88,3.22,4.64,4.64,0,0,1-.76,2.71,5.86,5.86,0,0,1-2.35,2L218.7,91.1Z"/><path class="cls-2" d="M235.28,102.65,227,105.29a7.11,7.11,0,0,1-3.82.26,5.83,5.83,0,0,1-3-1.75,9,9,0,0,1-1.92-3.44,17,17,0,0,1-.77-6l3-.1a16,16,0,0,0,.15,3.56,4.51,4.51,0,0,1,.7-1,4,4,0,0,1,1-.8l9.06-5.34,1.21,3.79-9.47,5.35a6.81,6.81,0,0,0-1.29.94,3.11,3.11,0,0,0,1.64,1.06,3.84,3.84,0,0,0,2.13-.13l8.43-2.69Z"/><path class="cls-2" d="M235.77,119.62l-13.19-3-.65-4.13,12.64,3-1.27-8,7.22-1.14.62,3.9-4.19.66,1.31,8.28Z"/><path class="cls-2" d="M88.6,227.7a1.9,1.9,0,0,1,.4,1,2.1,2.1,0,0,1-.82,1.87,1.9,1.9,0,0,1-1,.36,2.3,2.3,0,0,1-1.13-.21,2.26,2.26,0,0,1-.91-.69,1.93,1.93,0,0,1-.39-1,2.1,2.1,0,0,1,.82-1.87,1.91,1.91,0,0,1,1-.36,2.26,2.26,0,0,1,1.12.2A2.3,2.3,0,0,1,88.6,227.7ZM87,224.63l4.66-11.74,3.7,1.62L89.9,225.89Z"/><path class="cls-2" d="M96.8,218.75l12.33,3.7-4.34,14.45-12.33-3.7Zm5.09,14.07,2.57-8.56-4.76-1.43-2.57,8.56Z"/><path class="cls-2" d="M113.15,226.18l-2.34-.38.49-3,6.24,1-1.37,8.5-3.9-.63Z"/><path class="cls-2" d="M120.39,239.45c-.42-.08-.92-.2-1.5-.36l.2-3a12.5,12.5,0,0,0,1.81.24,1.62,1.62,0,0,0,1.32-.4,2.18,2.18,0,0,0,.51-1.44l.44-7.11-2.66-.17.19-3.06,6.61.41-.65,10.49a5.71,5.71,0,0,1-.71,2.57,3.8,3.8,0,0,1-1.68,1.55,5.09,5.09,0,0,1-2.52.42A10.88,10.88,0,0,1,120.39,239.45Z"/><path class="cls-2" d="M142.15,226.54l-4.2,12.85-4.17.26,4.17-12.3-8.08.51-.46-7.3,3.94-.25.27,4.23L142,224Z"/><path class="cls-2" d="M158.19,233.13l.6,2.88-12.7,2.64-.63-3,7.12-1.48-1.36-6.53a2.23,2.23,0,0,0-.93-1.55,2.56,2.56,0,0,0-1.88-.18l-4,.83-.62-3,4.25-.88a7.59,7.59,0,0,1,3.34,0,4.64,4.64,0,0,1,2.42,1.42,5.86,5.86,0,0,1,1.31,2.78l1.29,6.22Z"/><path class="cls-2" d="M166.85,230.11a3.38,3.38,0,0,0,1.94-1.77,3.69,3.69,0,0,0-.12-2.76l-1.91-5.08-8.21,3.09-1.08-2.87,11.91-4.47,3,7.87a6.91,6.91,0,0,1,.44,3.62,5.69,5.69,0,0,1-1.54,3,9.57,9.57,0,0,1-3.34,2.18Zm-5.81-.26a4.89,4.89,0,0,1-.3-3.34l3-1.11a13.08,13.08,0,0,0,.77,2.72l3.85,10.24-3.57,1.34Z"/><path class="cls-2" d="M191,213.52l7.22,2.76-3.64,2.49-9.21-3.53a2.25,2.25,0,0,0,.44,1.41l3.78,5.53-3.15,2.15-2.82-4.13a7.4,7.4,0,0,1-1.36-3.13,4.36,4.36,0,0,1,.61-2.78l-5.46-2.08,3.65-2.49,6,2.28-.86-5.77,3.66-2.5Z"/><path class="cls-2" d="M201.29,196.25l5,12.55-3,2.88-4.7-12.11-5.87,5.57-5-5.3,2.86-2.72,2.92,3.08,6.08-5.77Z"/><path class="cls-2" d="M210,185.46l6.76,11.71-2.59,3.28-6.37-11.32-5,6.35L197,190.94l2.45-3.1,3.33,2.63,5.2-6.58Z"/><path class="cls-1" d="M76.64,109.46l-1.71.46-1.44-5.38,8.56-2.29,8,30L83.23,134Z"/><path class="cls-1" d="M89.11,106.12l-1.64.44L86,101.18l8.62-2.31,6,22.29-7,1.87Z"/><path class="cls-1" d="M104.38,119.7l-.3-5.33a27.88,27.88,0,0,0,4.62-.67,5.62,5.62,0,0,0,3.37-2,4.16,4.16,0,0,0,.27-3.42l-2.1-7.83L100.84,103,99.4,97.6l16.37-4.39L119,105.27q1.48,5.51-.65,8.79t-7.2,4.66A33.69,33.69,0,0,1,104.38,119.7Z"/><path class="cls-1" d="M131.68,111.92a9.63,9.63,0,0,1-4.61-2.74,12.18,12.18,0,0,1-2.84-5.16l-.27-.92a9.76,9.76,0,0,1-.29-3.05,10.92,10.92,0,0,1,.46-2.94c0-.07.12-.23.25-.46l-.07-.1q-.55.29-2.2,1.2l-2.63-4.66a36.21,36.21,0,0,1,5-2.48,46.69,46.69,0,0,1,5.67-1.94q5.47-1.47,9.06.52t5,7.37l.52,2a11.94,11.94,0,0,1,.2,5.87,9.42,9.42,0,0,1-2.62,4.68,11.13,11.13,0,0,1-5,2.76A10.87,10.87,0,0,1,131.68,111.92Zm5.67-6.87a4,4,0,0,0,.72-2,7.32,7.32,0,0,0-.26-2.62l-.5-1.86q-1.44-5.36-4.7-4.49a2.84,2.84,0,0,0-2.15,2.13,9,9,0,0,0,.34,4.54l.39,1.46a7.5,7.5,0,0,0,1.08,2.41,3.9,3.9,0,0,0,1.61,1.38,2.9,2.9,0,0,0,3.46-.93Z"/><path class="cls-1" d="M146,85.12l10.35-2.77q4.35-1.16,7.19.36t4,5.65l3.72,13.89-7,1.87-3.93-14.5a2.81,2.81,0,0,0-1-1.63,1.8,1.8,0,0,0-1.59-.25l-3.39.91,4.55,16.9-7,1.87Z"/><path class="cls-1" d="M88.32,154q2.85,1.53,4,5.65L96,173.49l-7,1.87-3.93-14.5a2.87,2.87,0,0,0-1-1.63,1.74,1.74,0,0,0-1.57-.25l-2.74.74a34.33,34.33,0,0,0,.81,4l1.56,5.84a9.05,9.05,0,0,1,.21,4.29,6.28,6.28,0,0,1-1.82,3.27A8.25,8.25,0,0,1,76.92,179a19.56,19.56,0,0,1-3.21.56l-1.43-5.32,1.18-.3a2.33,2.33,0,0,0,1.79-3.19L74,166.15a11.86,11.86,0,0,1-.35-2.37,8.41,8.41,0,0,1,.19-2.48l-3.13.84-1.44-5.38L81.1,153.6Q85.47,152.43,88.32,154Z"/><path class="cls-1" d="M96.52,155.23l-1.64.44-1.44-5.38,8.62-2.31,6,22.29-7,1.87Z"/><path class="cls-1" d="M110.45,151.5l-3.21.86L105.8,147,116,144.25l3.44,12.86-7,1.87Z"/><path class="cls-1" d="M122.9,148.16l-1.64.44-1.44-5.38,8.62-2.31,6,22.29-7,1.87Z"/><path class="cls-1" d="M152.35,139.3,150.12,159l-7.35,2,2.38-18.76-11.4,3.06-3.05-11.38,7-1.87,1.61,6,11.86-3.18Z"/><path class="cls-1" d="M174.14,128.67l3.35,12.49a11.18,11.18,0,0,1,.11,6.06,9.21,9.21,0,0,1-3,4.58,14.48,14.48,0,0,1-5.64,2.79,27.62,27.62,0,0,1-9.73.81l0-5.44a25.1,25.1,0,0,0,4.84.08,6.3,6.3,0,0,1-1.44-1,5,5,0,0,1-1-1.33L154.39,134l7-1.88,7.25,14.54a6.07,6.07,0,0,0,.92,1.43,4.46,4.46,0,0,0,1-4.66l-3.45-12.86Z"/><path class="cls-1" d="M202,139.53l1.39,5.18L183.83,150l-1.45-5.4,10.07-2.7L190,132.67a2.27,2.27,0,0,0-1.13-1.53,2.85,2.85,0,0,0-2.07-.1l-6.28,1.68-1.44-5.38,6.82-1.83a11.52,11.52,0,0,1,5.08-.32,7.32,7.32,0,0,1,3.87,1.94,8.5,8.5,0,0,1,2.24,4l2.31,8.64Z"/><polygon class="cls-2" points="40.4 177.08 42.2 179.85 45.4 179 43.31 181.57 45.11 184.35 42.02 183.16 39.94 185.73 40.12 182.43 37.02 181.24 40.22 180.38 40.4 177.08"/><polygon class="cls-2" points="48.76 188.8 51.35 192.78 55.93 191.55 52.95 195.24 55.53 199.22 51.1 197.52 48.11 201.21 48.36 196.47 43.93 194.77 48.52 193.54 48.76 188.8"/><polygon class="cls-2" points="59.39 198.41 62.76 203.6 68.73 202 64.84 206.81 68.2 211.99 62.43 209.78 58.54 214.58 58.86 208.41 53.09 206.19 59.06 204.59 59.39 198.41"/><polygon class="cls-2" points="71.99 205.47 76.14 211.86 83.5 209.89 78.71 215.81 82.86 222.2 75.74 219.47 70.95 225.39 71.34 217.78 64.23 215.05 71.59 213.08 71.99 205.47"/><polygon class="cls-2" points="231.19 125.96 231.01 129.26 227.82 130.12 230.91 131.3 230.73 134.61 232.81 132.04 235.91 133.22 234.1 130.45 236.19 127.88 232.99 128.73 231.19 125.96"/><polygon class="cls-2" points="229.86 140.28 229.61 145.02 225.03 146.25 229.46 147.95 229.21 152.69 232.2 149 236.63 150.7 234.05 146.72 237.03 143.03 232.45 144.26 229.86 140.28"/><polygon class="cls-2" points="225.34 153.95 225.02 160.12 219.05 161.72 224.82 163.94 224.5 170.11 228.39 165.31 234.16 167.52 230.79 162.34 234.69 157.53 228.71 159.13 225.34 153.95"/><polygon class="cls-2" points="218.02 166.34 217.62 173.95 210.26 175.93 217.38 178.66 216.98 186.27 221.77 180.34 228.89 183.07 224.74 176.68 229.53 170.76 222.17 172.73 218.02 166.34"/></g></g></svg>